<svg width="80" height="59" viewBox="0 0 80 59" fill="none" xmlns="http://www.w3.org/2000/svg"><path fill="#C20831" d="M0 0h79.96v59H0z"/><path d="M43.783 14.969a.543.543 0 00-.49-.362c-.42 0-.758.356-.945.985.264.058.522.126.777.204.197-.636.461-.798.658-.827zm-3.76-3.911a.731.731 0 10.732.73.727.727 0 00-.732-.73zm1.155.352c0 .61.49 1.27 1.276 1.27.787 0 1.242-.473 1.242-.996 0-.277-.232-.494-.461-.494-.245 0-.465.2-.465.462 0 .107.036.19.087.268-.467.036-.831-.09-1.07-.455a.473.473 0 00.435-.462.468.468 0 00-.467-.465c-.294 0-.58.252-.58.872m.96 1.79v.132c0 .222.364.48.806.48 1.235 0 1.628-1.259 2.708-1.259.761 0 1.367.591 1.367 1.54 0 .834-.486 1.58-1.39 1.92-.25.093-.39.329-.425.73h.055c1.55 0 2.676-1.193 2.676-2.65 0-1.456-1.006-2.454-2.283-2.454-1.492 0-1.73 1.563-3.282 1.563h-.229l-.003-.003zm-2.689.72c.252.29.4.516.561.875a.066.066 0 00.013.019.066.066 0 01.013-.02c.161-.361.31-.584.561-.875-.097-.252-.383-.71-.574-.898-.19.188-.48.646-.574.898zm5.565 1.72c-.07-.193-.235-.36-.442-.36-.419 0-.641.4-.757.758.242.094.48.194.712.3.136-.461.297-.63.487-.697zm17.235 11.638h-1.26c-.851.81-1.544.962-3.389.962h-4.094c-.464.424-.91.698-1.467.866v.048h5.561c2.55 0 3.298-.348 4.65-1.88M60.298 29.5h-1.26c-.852.81-1.545.963-3.389.963h-4.094c-.465.423-.91.697-1.467.865v.049h5.561c2.55 0 3.298-.35 4.65-1.88M39.117 10.938l.902-.655.903.658-.345-1.062.903-.656h-1.116l-.345-1.062-.345 1.062H38.56l.902.659-.344 1.063v-.007zm24.157 13.763c-1.032 1.114-1.644 1.308-3.727 1.308h-4.091c-.465.423-.91.697-1.467.865v.049h5.561c2.811 0 3.43-.42 5.088-2.387l.632-.753H48.924c.09.297.168.604.229.914h14.12v.004zm-23.803-.915l-.296.915h6.457l-2.302 1.676.297.914 4.036-2.936a7.946 7.946 0 01-2.357 8.11l.307.94a8.864 8.864 0 002.834-9.619h-8.976zm18.883 7.933h-1.26c-.852.81-1.545.962-3.386.962h-6.696c-.287.327-.596.63-.925.915h7.621c2.55 0 3.298-.35 4.65-1.88M36.757 14.604a.543.543 0 00-.49.362c.2.029.464.19.657.823.255-.077.513-.145.777-.203-.187-.627-.525-.985-.944-.985m1.653.85c.274-.043.555-.072.839-.091-.171-.81-.632-1.37-1.087-1.37-.238 0-.416.165-.512.378.264.049.58.375.76 1.079m-2.389 17.942l-.799.581a8.786 8.786 0 004.8 1.421c1.941 0 3.74-.63 5.2-1.699h.004l-2.773-8.543h-.96l1.995 6.153-2.305-1.676-.777.565 4.03 2.933a7.871 7.871 0 01-4.417 1.353 7.878 7.878 0 01-4.004-1.088m-.5-17.063c.233-.11.471-.21.713-.304-.12-.355-.342-.756-.761-.756-.21 0-.37.168-.442.362.194.068.355.236.487.698m9.45 1.782v-.94c-1.354-.778-3.163-1.353-4.95-1.353-1.785 0-3.594.575-4.948 1.354v.94a9.702 9.702 0 014.949-1.377 9.71 9.71 0 014.949 1.376zm-4.95-.461l-2.772 8.546.777.565 1.996-6.153.88 2.713h.96l-1.537-4.748a7.95 7.95 0 016.97 4.748h.987c-1.287-3.314-4.501-5.671-8.257-5.671m1.863-3.66c-.454 0-.915.556-1.086 1.37.284.019.561.048.838.09.18-.707.497-1.033.761-1.079-.093-.216-.27-.378-.513-.378M27.998 29.145v-.049c-.558-.168-1.006-.442-1.467-.865h-4.094c-1.844 0-2.538-.155-3.389-.963h-1.26c1.35 1.531 2.099 1.88 4.649 1.88h5.561v-.003zm1.947 2.225v-.048c-.557-.171-1.002-.443-1.467-.866h-4.094c-1.844 0-2.537-.155-3.388-.962h-1.261c1.35 1.53 2.099 1.88 4.649 1.88h5.561v-.004zm3.083 1.311H26.33c-1.844 0-2.534-.155-3.385-.962h-1.26c1.35 1.53 2.098 1.88 4.648 1.88h7.622a9.504 9.504 0 01-.925-.914m4.558-20.01c.79 0 1.277-.658 1.277-1.269 0-.61-.284-.872-.577-.872a.47.47 0 00-.468.466.47.47 0 00.436.461c-.239.365-.6.491-1.07.456a.474.474 0 00.086-.268.463.463 0 00-.46-.462c-.233 0-.462.216-.462.494 0 .523.487.995 1.242.995m-17.1 14.25h5.561v-.049c-.558-.168-1.003-.442-1.467-.865h-4.094c-2.083 0-2.696-.194-3.727-1.308h14.12a8.63 8.63 0 01.233-.914H14.773l.632.752c1.657 1.967 2.276 2.387 5.084 2.387m14.299-10.187h.051c-.038-.4-.174-.636-.425-.73-.903-.339-1.39-1.085-1.39-1.918 0-.95.606-1.54 1.367-1.54 1.08 0 1.474 1.259 2.708 1.259.445 0 .806-.262.806-.482V13.2h-.232c-1.55 0-1.79-1.563-3.282-1.563-1.273 0-2.28 1.01-2.28 2.455 0 1.443 1.126 2.648 2.674 2.648m4.842 11.766L34.4 24.704h2.847l.296-.914h-4.987c1.031-2.804 3.591-4.87 6.664-5.178l.306-.94c-3.717.204-6.828 2.71-7.937 6.118l7.257 5.28.777-.565h.003zm-4.817 5.197v.007l7.258-5.285-.297-.913-5.226 3.801.88-2.713-.777-.565-1.538 4.744a7.951 7.951 0 01-2.856-7.942l-.8-.581a8.87 8.87 0 003.356 9.447zM15.281 49.906H14.08V47.15h1.244v.594s.168-.597 1.035-.53v1.325s-.929-.133-1.077.31v1.056zm25.772 0h-1.202V47.15h1.244v.594s.168-.597 1.035-.53v1.325s-.931-.133-1.077.31v1.056zM20.33 48.54c-.065 1.563-1.625 1.43-1.625 1.43-1.796.088-1.773-1.498-1.773-1.498.106-1.412 1.753-1.367 1.753-1.367 1.709 0 1.648 1.431 1.648 1.431m-1.625-.684s-.487-.042-.548.64c0 0 .02.551.506.57 0 0 .464.046.51-.551 0 0 .019-.64-.465-.663m43.147.692c-.064 1.563-1.628 1.43-1.628 1.43-1.792.088-1.773-1.498-1.773-1.498.106-1.412 1.75-1.367 1.75-1.367 1.71 0 1.648 1.431 1.648 1.431m-1.628-.684s-.484-.042-.548.64c0 0 .022.551.506.57 0 0 .464.046.506-.551 0 0 .02-.64-.464-.663m-39.646-.698h1.477l.467 1.367.423-1.366h1.35l-.992 2.225s-.4 1.06-1.055.95h-1.415v-.795h.887l-1.142-2.38zm6.332.004h1.226v2.755h-1.222v-.507c-.358.572-1.1.507-1.1.507-1.286-.133-1.138-1.453-1.138-1.453.042-1.457 1.245-1.39 1.245-1.39.528-.022.993.443.993.443v-.352l-.004-.003zm-.419.727s-.57-.088-.59.64c0 0 0 .593.529.593 0 0 .487.023.529-.571 0 0 .064-.662-.465-.662m9.202-.727h1.225v2.755h-1.222v-.507c-.358.572-1.1.507-1.1.507-1.286-.133-1.137-1.453-1.137-1.453.041-1.457 1.244-1.39 1.244-1.39.529-.022.993.443.993.443v-.352l-.003-.003zm-.423.727s-.57-.088-.59.64c0 0 0 .593.526.593 0 0 .487.023.529-.571 0 0 .064-.662-.465-.662zm21.514 2.025h-1.203V47.15h1.245v.594s.167-.597 1.035-.53v1.325s-.929-.133-1.077.31v1.056zm-3.253-2.752h1.225v2.755H53.54v-.507c-.358.572-1.1.507-1.1.507-1.286-.133-1.137-1.453-1.137-1.453.042-1.457 1.244-1.39 1.244-1.39.529-.022.993.443.993.443v-.352l-.003-.003zm-.422.727s-.571-.088-.59.64c0 0 0 .593.528.593 0 0 .487.023.529-.571 0 0 .065-.662-.464-.662M30.19 46.666h-1.268v3.24h1.267v-3.24zm8.8.488h-1.264v2.755h1.264v-2.755zm0-.556h-1.264v.362h1.264v-.362zm6.377 3.308V47.15h1.225v.617s.278-.663 1.08-.663c0 0 .613-.067.929.553 0 0 .51-.682 1.077-.553 0 0 .719-.045.886.75v2.028h-1.309V48.45s-.064-.42-.358-.375c0 0-.316 0-.357.33v1.498h-1.29v-1.388s.065-.485-.293-.42c0 0-.316-.045-.38.352V49.9H45.37l-.003.007zm20.015-2.665s-.465-.2-1.458-.22c0 0-1.392-.022-1.434 1.522 0 0 0 1.301 1.56 1.366 0 0 1.016 0 1.332-.462v-.64s-.316.198-.929.198c0 0-.719.045-.719-.572 0 0 .042-.53.548-.507 0 0 .529-.11 1.096.155v-.837l.004-.003zm-46.122-5.92s-.336.581-.336.704.087.29-.016.336c-.103.045-.909.262-.835-.504-.806.32-2.898 1.253-4.771 1.253-1.122 0-1.686.136-2.148-.355-.219-.31-.796-.759-1.176.065-.397.562-.41 1.085-.661 1.04-.265-.049-.38-.595-.455-1.254-.277.934-.048 2.139.277 2.126.32 0 .516-.585.684-.943.164-.356.232-.514.474-.524.909.046-.045.992 2.885.856 1.36-.135 3.118-.413 4.308-1.253.219-.184.277-.23.335.123.074.381.235.536.645.504.41-.03 1.157-.75.79-2.17m51.428-1.089c-.145.261-.467.856-.629.95 0 .442.071 3.271-.029 3.468.249-.459.72-1.024.687-1.453-.029-.427.045-2.768-.029-2.965zm-3.881.61l-.732.523.425.398.658-.598-.351-.323z" fill="#fff"/><path d="M68.99 40.924s-.277.352-.368.49c-.087.14-.029.185-.045.427-.013.245.016.627-.293 1.04.116.123 1.509.397 1.509.397l-.72.856c-.102-.061-.834.03-1.157.062-.322.032-1.947.258-2.65.352-.703.093-2.344.151-3.646.106-1.303-.045-1.802-.307-2.547-.52 0 0-.439.61-.719.688-.277.078-1.232.152-2.46-.107.38-.029 2.476-.549 2.84-.962-.864.03-1.538-.307-1.596-.49-.057-.185.22-.582.365-.857.145-.274.529-.978.76-.962.426.032.836.794 1.042 1.36.19.274.806.687 1.29.565.087-.062.528-.307.732-.43l-.03-1.13c-.012-.213-.16-.291-.19-.488-.029-.2.207-.659.513-1.192-.074.23.206.504.264.81.058.308-.19.414-.219.489-.03.077-.042.717-.013 1.36 1.844-.889 2.212-.766 2.605-.488.397.274.248.823-.426 1.36.439.06 1.906-.078 2.667-.26-.058-.044-1.332-.29-1.332-.29.09-.029.439-.704.439-.704l2.253-.029c.294 0 .294-.213.294-.213l.016-.581c0-.152-.058-.185-.103-.537-.046-.352.586-.855.586-.855-.145.52 0 .549.339.733zm-5.374 2.186c-.513-.29-2.08.29-2.547.55.673.077 2.534 0 2.546-.55zm-5.214-.29c.042-.259-.28-.627-.645-.533 0 .29.088.552.236.581.145.03.364.045.41-.045m-4.643-1.799c.1.023.241.142.283.171.045 0-.032.252-.297.4.065 1.044-.055 1.696-.055 1.696 1.825-1.353 2.725-1.237 2.834-.62.11.62-1.14 1.88-2.195 1.97-1.054.094-1.58-.161-2.637-.642.2.045.725-.023 1.318.067.045-.135.287-.387.484-.549l-.132-1.56c-.023-.184-.178-.206-.133-.597.046-.391.233-.882.561-.94-.045.09-.077.481-.032.597m1.757 2.49c-.013-.193-.164-.461-.683-.435-.516.022-1.087.571-1.306.872.21.013 1.525-.058 1.99-.436zM50.4 40.336a59.23 59.23 0 01-.548.985c.045.743.142 2.81-.064 3.291.46-.62.68-1.134.68-1.366 0 0-.013-2.787-.068-2.91zm-2.144.4c0 .068.307.14.33.323.022.184-.056.32-.243.55l-.032.561s-.01.265.065.343c.177.093.341-.159.625-.055.464.168.187.93.09 1.308-.1.378-.451 1.008-.683.998-.361-.02-.494-.297-.593-.837-.265.23-1.67.756-2.341.746-.67-.013-.88-.62-1.035-1.156-.077.24-.693 1.202-1.812 1.192-1.119-.013-1.889-.698-2.382-1.124l-.123.035c-.087.666-.603.824-.944.86-.339.035-.703-.482-.88-.985-.155.103-2.064.92-3.57.94-2.734.032-2.23-1.092-2.81-1.08-.243.01-.307.081-.471.437-.168.358-.416.927-.736.927-.79 0-.648-1.48-.219-2.19.132-.24.187-.104.12.035-.065.14-.22 1.066.045 1.111.183.033.47-.184.867-.746.351-.575 1.032-.48 1.254-.174.416.62 1.054.643 2.173.665 1.119.023 1.834-.184 3.601-.94-.045.149-.023.54.252.747.274.206.735.31.9-.15l-.736-.664c-.252-.217-.42-.217-.361-.872 0-1.228 3.569-1.044 3.569-1.044.383 0 .76-.055.79.275.064.756-.67 1.263-1.36 1.47.209-.117.734-.505.78-.689.048-.203-.023-.287-.22-.274-.197.01-2.801.252-2.801.252-.142.022-.055.148-.055.148l2.34 1.641c1.055.55 1.89.184 2.364 0 .47-.184.46-.481.47-.7l.045-1.525c.12-.068.416-.62.416-.62l-.045 2.454c.013.288.045.769.387.814.758.126 2.25-.62 2.615-.894.022-.149-.023-1.034-.023-1.034 0-.158-.251-.216-.251-.41 0-.194.493-1.02.606-1.147-.055.126.022.414.022.481m.039 2.588c-.032.197-.07.694.49.578.164-.117-.052-.65-.49-.578zm-16.897-2.258l-.726.575.484.252s.46-.39.657-.365c.197.023.484.274.484.274s.635-.549.725-.575c-.154-.206-.416-.32-.416-.32s-.548.392-.68.392-.528-.23-.528-.23" fill="#fff"/><path d="M37.036 44.134c-.103.09-.66.41-.777.443l.468.29s.541-.32.657-.274c.116.045.41.245.41.245l.748-.397-.352-.323s-.57.307-.703.29c-.132-.016-.454-.274-.454-.274m-8.337-3.659c-.055.113-.551.985-.551.985.154.917.406 2.887.196 3.372.461-.62.639-1.26.639-1.49 0 0-.23-2.738-.287-2.864m-8.161 3.398c-.747.061-1.976 1.298-2.62 1.023-.378-.158-.03-.978.235-1.191-.22.794-.22.704-.058.84.16.138 1.186-.75 1.683-1.07.5-.32 1.67-.61 2.476-.626a.724.724 0 00-.307-.291c-.116-.045-.5-.09-.5-.09l.397-.811c.877-.184 2.737.123 3.22.245l-.19.95a1.916 1.916 0 00-.805.397c.496.565 1.863 0 2.228-.274.022-.149 0-.979 0-.979 0-.161-.281-.161-.281-.355 0-.194.496-1.02.606-1.147-.055.126.023.414.023.481 0 .068.26.117.283.3.023.185-.01.34-.193.57l-.016.445s-.01.265.068.346c.174.09.338-.162.625-.059.464.168.1 1.002 0 1.38-.1.377-.22.849-.525.804-.468-.071-.416-.427-.513-.963-.261-.113-.96.727-2.276.481-.535-.1-.922-.32-1.47-.823-.133.161-1.393.13-2.08.42m6.239-.507c-.033.194-.075.707.409.613.177-.167.029-.684-.41-.613zm-3.647-.685l.761-.336c-.116-.077-.951-.09-1.1-.077l.34.413z" fill="#fff"/><path d="M23.77 40.588l-.79.442.438.29.645-.442-.294-.29zm-12.712.307c.045.016.496.197.496.197s-.616.504-.657.52c-.046.016-.455-.214-.6-.168-.145.045-.5.43-.5.43s-.467-.169-.57-.198c.248-.139.615-.549.69-.626.293.122.586.29.673.258.087-.03.294-.41.471-.41m5.371 3.297c.087 0 .558-.397.674-.38.116.015.5.322.5.322s-.69.536-.761.52c-.075-.016-.41-.29-.484-.274-.07.016-.645.413-.645.413l-.615-.274s.66-.566.76-.582c.103-.016.468.23.571.259m3.866.013l-.584.307.29.365.616-.398-.322-.274z" fill="#fff"/></svg>