<svg width="25" height="18" viewBox="0 0 25 18" fill="none" xmlns="http://www.w3.org/2000/svg">
<g clip-path="url(#clip0_1187_120224)">
<g clip-path="url(#clip1_1187_120224)">
<path fill-rule="evenodd" clip-rule="evenodd" d="M7.32519 13.3555C7.25769 13.3748 7.15483 13.4101 7.10983 13.423C7.04233 13.4422 6.95555 13.4583 6.87519 13.4776C6.87519 13.4873 6.8784 13.4969 6.8784 13.5033C6.89447 13.5805 6.88805 13.664 6.87519 13.7444C6.84947 13.9051 6.78198 14.0851 6.68555 14.2233C6.92983 14.1976 7.17733 14.1719 7.42162 14.1462C7.4184 14.0883 7.41519 14.0272 7.41198 13.9662C7.39912 13.7765 7.39269 13.5387 7.32197 13.3555" fill="#C20831"/>
<path fill-rule="evenodd" clip-rule="evenodd" d="M6.15862 2.79964C6.15862 2.79964 6.1554 2.78999 6.15219 2.78678C6.10076 2.76428 6.06862 2.76106 6.01398 2.8157C5.88862 2.93785 5.99469 3.04713 6.09755 3.14356C6.19076 3.23034 6.45433 3.35571 6.40933 3.11142C6.38362 2.96678 6.22612 2.91535 6.1554 2.79964" fill="#C20831"/>
<path fill-rule="evenodd" clip-rule="evenodd" d="M9.60922 5.83095C9.57708 5.78595 9.59315 5.72809 9.48708 5.70881C9.36172 5.68631 9.26208 5.70881 9.32315 5.84059C9.35529 5.90809 9.54172 6.0238 9.68958 6.07523C9.67994 6.05594 9.6703 6.03988 9.66387 6.03023C9.62851 5.97238 9.64779 5.88559 9.60922 5.83095Z" fill="#C20831"/>
<path fill-rule="evenodd" clip-rule="evenodd" d="M9.43082 12.105C9.3794 12.0697 9.26689 12.0697 9.19939 12.0439C9.11261 12.0568 9.03547 12.0697 8.96797 12.1468C8.91654 12.2047 8.85547 12.3589 8.91011 12.4457C8.95511 12.5197 9.18011 12.5647 9.25725 12.5679C9.38904 12.5743 9.51439 12.5164 9.52725 12.375C9.53368 12.3107 9.49832 12.1532 9.43082 12.1082" fill="#C20831"/>
<path fill-rule="evenodd" clip-rule="evenodd" d="M15.9617 11.7385C15.8974 11.6742 15.6917 11.7096 15.5663 11.7289C15.5277 11.7353 15.4956 11.7417 15.4667 11.7449C15.3027 11.7642 15.1324 11.7867 14.9652 11.8124C14.6342 11.8574 14.2967 11.9121 13.9624 11.9699C13.6313 12.0278 13.2938 12.0921 12.9595 12.1596C12.9049 12.1692 12.8502 12.1789 12.7924 12.1885C12.6606 12.2078 12.5224 12.2303 12.4099 12.2785C12.2363 12.3524 12.1656 12.5035 12.1045 12.7253C12.0627 12.8828 12.0531 13.0339 12.0434 13.1946C12.0338 13.336 12.0274 13.4839 11.992 13.6349C11.947 13.8214 11.8827 14.011 11.8184 14.191C11.7799 14.3003 11.7381 14.416 11.706 14.5253C11.542 15.0621 11.4263 15.631 11.3652 16.216C11.8956 16.2031 12.4388 16.0167 12.9949 15.8078C13.6152 15.5764 14.1938 15.4028 14.8174 15.2614C14.8463 15.2549 14.8752 15.2485 14.9074 15.2421C15.0135 15.2228 15.1324 15.2003 15.216 15.1457C15.216 15.1296 15.216 15.1103 15.2192 15.0846C15.2545 14.9624 15.2802 14.8339 15.3027 14.7117C15.3381 14.5382 15.3735 14.3614 15.4345 14.1814L15.4795 14.0496C15.486 14.0174 15.4892 13.9821 15.4956 13.9499L15.502 13.9114C15.5052 13.7442 15.5117 13.5739 15.5727 13.3971C15.6049 13.3007 15.6499 13.2139 15.6852 13.14L15.6949 13.111C15.7077 13.0821 15.7174 13.0499 15.7302 13.021C15.7785 12.7735 15.8331 12.5292 15.8942 12.2946C15.9038 12.2142 15.9167 12.1371 15.9359 12.0599C15.9456 12.0214 15.9584 11.9796 15.9713 11.941L15.9777 11.9217C15.981 11.8703 15.9874 11.8189 15.9906 11.7674C15.9809 11.761 15.9745 11.7514 15.9681 11.7417C15.9681 11.7417 15.9617 11.7353 15.9617 11.7321M15.0617 13.3231C15.0456 13.3521 15.0327 13.381 15.0167 13.4099C14.9267 13.5899 14.8881 13.7699 14.8495 13.9596C14.8174 14.1107 14.7852 14.2682 14.7242 14.4257C14.5988 14.7375 14.3159 14.8146 14.0427 14.8853C14.0042 14.8949 13.9624 14.9078 13.9238 14.9174C13.6538 14.9946 13.3806 15.0589 13.117 15.1232C12.9788 15.1553 12.8374 15.1874 12.6992 15.2228C12.6381 15.2389 12.5802 15.226 12.5449 15.1906C12.5063 15.1521 12.4935 15.0974 12.5095 15.0332C12.6092 14.6185 12.6992 14.1685 12.7859 13.6542C12.802 13.561 12.8727 13.4903 12.9627 13.4807C13.3517 13.4324 13.7406 13.3617 14.1199 13.2685C14.2195 13.2428 14.2902 13.3039 14.3095 13.3778C14.3288 13.4549 14.2902 13.5546 14.1842 13.5835C13.8306 13.6735 13.4674 13.7474 13.1074 13.7989C13.0527 14.1332 12.982 14.4771 12.8952 14.8435C13.0109 14.8178 13.1267 14.7889 13.2424 14.7632C13.3645 14.7342 13.4867 14.7085 13.6088 14.6764C13.8177 14.6282 13.9784 14.5832 14.1295 14.5382C14.1424 14.5349 14.1585 14.5285 14.1713 14.5253C14.2388 14.506 14.3031 14.4867 14.3577 14.445C14.4349 14.3903 14.4542 14.3485 14.4863 14.2521C14.5217 14.1428 14.5474 14.0271 14.5699 13.9178C14.6052 13.7603 14.6374 13.5964 14.7113 13.4389C14.7467 13.3649 14.7885 13.2878 14.827 13.2171C14.9074 13.0724 14.9845 12.9374 15.007 12.796C14.9588 12.7992 14.9106 12.8024 14.8656 12.8057C14.5377 12.8249 14.2002 12.8474 13.8724 12.9374C13.7052 12.9824 13.567 13.0178 13.4095 13.0146C13.3613 13.0146 13.3163 13.0082 13.2713 13.0049C13.1717 12.9985 13.0785 12.9889 12.9788 13.0049C12.9306 13.0114 12.8888 12.9889 12.876 12.9439C12.8599 12.8892 12.892 12.8249 12.9467 12.7992C13.0817 12.7414 13.2038 12.7349 13.3517 12.7414C13.5381 12.751 13.702 12.7092 13.8949 12.6578L13.9302 12.6482C14.2292 12.5678 14.5409 12.5485 14.8431 12.5324C14.9459 12.526 15.052 12.5196 15.1549 12.5099C15.1902 12.5099 15.2256 12.5196 15.2513 12.5421C15.2738 12.5614 15.2867 12.5871 15.2899 12.616C15.3059 12.8764 15.1902 13.0949 15.0713 13.3264" fill="#C20831"/>
<path fill-rule="evenodd" clip-rule="evenodd" d="M12.56 8.78149C12.5247 8.73649 12.4797 8.6947 12.4539 8.64648C12.4154 8.66256 12.3768 8.67863 12.3447 8.70756C12.2707 8.76863 12.1904 8.89078 12.2 8.99685C12.2161 9.18328 12.8236 9.11899 12.56 8.78149Z" fill="#C20831"/>
<path fill-rule="evenodd" clip-rule="evenodd" d="M15.0024 9.51102C15.0024 9.51102 15.0088 9.51103 15.0088 9.50781C15.0024 9.50781 14.9928 9.51102 14.9863 9.51424C14.9928 9.51424 14.996 9.51424 15.0024 9.51424" fill="#C20831"/>
<path fill-rule="evenodd" clip-rule="evenodd" d="M13.4231 7.68856C13.4231 7.68856 13.4231 7.68534 13.4264 7.68213C13.4264 7.68213 13.4231 7.68535 13.4199 7.68535" fill="#C20831"/>
<path fill-rule="evenodd" clip-rule="evenodd" d="M0.141429 0.147576C0.225001 0.125076 0.311788 0.109004 0.398573 0.0961467C0.405002 0.0640039 0.414643 0.0350725 0.424286 0.00292969H0.691072H0L0.144644 0.147576H0.141429Z" fill="#C20831"/>
<path fill-rule="evenodd" clip-rule="evenodd" d="M3.68803 14.5895C3.85195 14.5478 3.99338 14.5317 4.14124 14.5381C4.15731 14.4546 4.1766 14.3742 4.18624 14.2874C4.19267 14.2103 4.19588 14.1492 4.22803 14.0688C4.2441 14.0303 4.26017 13.9917 4.27624 13.9531L3.62695 14.6024C3.64945 14.5992 3.67195 14.5928 3.69124 14.5863" fill="#C20831"/>
<path fill-rule="evenodd" clip-rule="evenodd" d="M4.56757 15.2904C4.61899 15.2839 4.67042 15.2775 4.72185 15.2743C4.83114 14.7953 4.94042 14.3132 5.0915 13.8503C5.20078 13.5161 5.34221 13.1882 5.44828 12.8539C5.46114 12.8186 5.474 12.7832 5.48364 12.7446L4.60935 13.6189C4.59007 13.7443 4.55471 13.8664 4.51292 13.9853C4.46792 14.1075 4.45185 14.1878 4.44542 14.31C4.43899 14.4353 4.39078 14.5543 4.38114 14.6764C4.3715 14.7664 4.29114 14.8243 4.20757 14.8146C3.99221 14.7889 3.80257 14.8468 3.58721 14.9079C3.45864 14.9464 3.32042 15.0043 3.18221 15.0461L2.61328 15.615C3.25614 15.4736 3.92471 15.3579 4.57078 15.2904" fill="#C20831"/>
<path fill-rule="evenodd" clip-rule="evenodd" d="M18.7495 9.70707C18.9938 9.66207 19.2252 9.63957 19.4631 9.68135C19.5209 8.96457 19.5659 8.24457 19.6109 7.52779C19.6366 7.14207 19.672 6.75957 19.7009 6.37707C19.7009 6.35778 19.7009 6.33528 19.7009 6.30957C19.2702 6.991 18.6852 7.58565 18.1324 8.13207C17.7788 8.48243 17.422 8.82957 17.0716 9.18314C16.8916 9.36314 16.702 9.53672 16.5413 9.73922C16.4609 9.83886 16.3838 9.94172 16.3066 10.0414C16.4802 10.0414 16.6506 10.0606 16.8338 10.0735C17.1745 10.0992 17.5024 10.0317 17.8238 9.92242C18.1291 9.81635 18.4345 9.76814 18.7463 9.70707M19.2188 9.0835C19.1449 9.18314 19.0677 9.30529 18.9745 9.38564C18.9263 9.42743 18.8395 9.40814 18.7977 9.36636C18.7495 9.31814 18.7399 9.241 18.7656 9.17992C18.8202 9.061 18.9488 8.95492 19.0581 8.88742C19.1641 8.80385 19.3056 8.96457 19.2156 9.0835M17.7434 9.15743C17.9781 8.92922 18.2159 8.701 18.4441 8.45993C18.682 8.21243 18.9006 7.95529 19.1802 7.75922C19.2734 7.69493 19.4116 7.82028 19.3474 7.92636C19.1609 8.23814 18.9102 8.48564 18.6724 8.75243C18.4474 9.00314 18.2224 9.24421 17.9266 9.40171C17.7884 9.47564 17.6052 9.28279 17.737 9.15422" fill="#C20831"/>
<path fill-rule="evenodd" clip-rule="evenodd" d="M0.777859 18.2252C0.858216 18.1705 0.980359 18.1673 1.06393 18.2252H4.23322C4.23322 18.0291 4.24286 17.8331 4.26857 17.6306C4.3425 17.0166 4.45179 16.3995 4.59965 15.792C4.38429 15.8241 4.16893 15.8627 3.95679 15.8948C3.61286 15.9463 3.26572 15.9784 2.92179 16.0523C2.60679 16.1166 2.295 16.1713 1.98 16.2452L0 18.2252H0.781072H0.777859ZM2.5425 17.1452C2.54572 16.9909 2.52964 16.8398 2.57464 16.6856C2.57786 16.6727 2.58429 16.6598 2.59072 16.6502C2.59072 16.6341 2.60036 16.6213 2.61322 16.6084C2.84786 16.377 3.27857 16.3416 3.5775 16.3095C3.79607 16.2838 4.09822 16.2645 4.095 16.557C4.09179 16.7113 4.01786 16.8913 3.97286 17.0423C3.93107 17.1902 3.88929 17.4184 3.78322 17.5406C3.68357 17.6531 3.49714 17.6852 3.36536 17.727C3.15322 17.7945 2.94107 17.862 2.72893 17.9327C2.60679 17.9713 2.50393 17.8845 2.50714 17.7655C2.51357 17.5598 2.5425 17.3541 2.54893 17.1452" fill="#C20831"/>
<path fill-rule="evenodd" clip-rule="evenodd" d="M0.620993 0.244001C0.608136 0.301858 0.553494 0.334004 0.498851 0.337218C0.450637 0.340432 0.405636 0.353285 0.357422 0.362928L0.945637 0.951148C1.06457 0.915791 1.16742 0.857928 1.21564 0.764714C1.29278 0.613642 1.29278 0.337212 1.3185 0.170069C1.32814 0.115426 1.33456 0.0575725 1.34421 0.00292969H1.62385C1.59171 0.285787 1.55314 0.56864 1.48242 0.832211C1.43742 0.992925 1.30885 1.09579 1.15778 1.16007L1.67528 1.67757C1.75242 1.65186 1.82957 1.62293 1.90992 1.59721C2.00957 1.56507 2.10599 1.53614 2.20564 1.50721C2.23135 1.22757 2.26992 0.947926 2.35028 0.661854C2.41135 0.443283 2.45957 0.224719 2.49814 0.00614711H0.691708C0.665994 0.0865043 0.640279 0.163647 0.620993 0.247219" fill="#C20831"/>
<path fill-rule="evenodd" clip-rule="evenodd" d="M3.7501 16.6951C3.80153 16.6276 3.79831 16.5923 3.74367 16.5923C3.6826 16.5955 3.62153 16.6019 3.56046 16.6051C3.47046 16.6148 3.37724 16.6276 3.28724 16.6437C3.1651 16.663 3.03974 16.6983 2.91117 16.7208C2.91117 16.9812 2.90153 17.2512 2.88867 17.518C3.08153 17.4762 3.28724 17.4312 3.44153 17.3444C3.60546 17.2544 3.73082 16.8655 3.7501 16.6951Z" fill="#C20831"/>
<path fill-rule="evenodd" clip-rule="evenodd" d="M2.14891 2.15354C2.16176 2.02819 2.1714 1.90604 2.18105 1.78711C2.07819 1.81925 1.97855 1.8514 1.87891 1.88354L2.14891 2.15354Z" fill="#C20831"/>
<path fill-rule="evenodd" clip-rule="evenodd" d="M15.2639 0.00321742H7.77785H8.1732C8.10249 0.0835746 8.02535 0.160721 7.94177 0.228221C7.89035 0.270007 7.76177 0.366429 7.63642 0.401786C7.61713 0.433929 7.5882 0.453222 7.55285 0.45965C7.50463 0.466079 7.45963 0.446789 7.4307 0.405003C7.28927 0.212146 7.14463 0.0900031 6.96785 0.00321742H7.51106C7.55285 0.0450031 7.5882 0.0900075 7.61392 0.138222C7.63963 0.118936 7.66213 0.10286 7.67499 0.093217C7.71035 0.0675027 7.7457 0.0353634 7.77785 0.00643485H5.75606H6.27356C6.61106 0.298935 6.96142 0.578575 7.27642 0.877504C7.37927 0.973932 7.48213 1.07036 7.58499 1.16679C7.65892 1.0575 7.75535 0.954647 7.82927 0.858219C8.01249 0.620361 8.19249 0.385715 8.38213 0.151072C8.42713 0.096429 8.47535 0.0514317 8.52356 0.00321742H9.0732C8.94463 0.0964317 8.8257 0.183213 8.74856 0.269999C8.52999 0.51107 8.34035 0.777861 8.13463 1.02858C8.04463 1.14108 7.95142 1.28893 7.8357 1.40143C7.97713 1.53643 8.11213 1.67464 8.2407 1.81929C8.33713 1.92857 8.61999 2.28536 8.3532 2.37536C8.16356 2.43965 7.95463 2.08929 7.85177 1.98C7.53999 1.64572 7.2282 1.31143 6.88749 1.00929C6.51463 0.678219 6.11285 0.363221 5.75285 0.00643485H3.2007H3.53499C3.4707 0.0482206 3.41606 0.102857 3.37749 0.170357C3.3357 0.241071 3.2907 0.340714 3.32927 0.411428C3.36785 0.482142 3.48356 0.478933 3.5607 0.456433C3.73427 0.408219 3.83392 0.225004 3.76963 0.0642896C3.75999 0.0417896 3.74713 0.0225031 3.73106 0.00321742H4.02677C4.04606 0.077146 4.05249 0.157507 4.03963 0.237864C3.99142 0.527149 3.7182 0.73286 3.43535 0.726432C3.1107 0.720003 2.97892 0.472503 3.10106 0.173574C3.12677 0.112503 3.16213 0.054646 3.2007 0.00321742H2.49356H2.67677C2.64785 0.221789 2.60606 0.440363 2.55142 0.658934C2.48392 0.922506 2.42928 1.17644 2.40678 1.44322C2.85678 1.31144 3.3132 1.1925 3.77285 1.08965C4.09106 1.01893 4.40927 0.948217 4.7307 0.896788C4.75963 0.89036 4.80142 0.864644 4.82713 0.845359C4.88499 0.803573 4.96213 0.8325 4.99106 0.883929C4.99427 0.890357 5.0007 0.900002 5.00392 0.906431C5.03285 0.954645 5.01677 1.02536 4.97499 1.06715C4.8207 1.23107 4.44463 1.22144 4.24213 1.26322C3.9657 1.31786 3.68927 1.37893 3.41285 1.44643C3.06892 1.53 2.7282 1.62 2.3907 1.71964C2.38427 1.91572 2.38106 2.115 2.35535 2.31107C2.35535 2.32714 2.34892 2.34001 2.3457 2.35608L2.60606 2.61643C2.64142 2.43965 2.67677 2.26607 2.71856 2.0925C2.76677 1.88357 2.86963 1.84821 3.0657 1.84821C3.39035 1.84821 3.7182 1.84822 4.04285 1.87072C4.1907 1.88036 4.1907 2.10536 4.0332 2.10857C3.76642 2.11821 3.49642 2.10215 3.23285 2.09572C3.17178 2.09572 3.00784 2.06358 2.95963 2.09572C2.91463 2.12786 2.89213 2.40429 2.87927 2.46214C2.85356 2.57786 2.82463 2.69036 2.79892 2.80286L3.85963 3.86358C3.89177 3.85715 3.92713 3.85714 3.95606 3.8475C4.17142 3.78321 4.14249 3.59036 4.11999 3.41036C4.08463 3.14036 4.11356 2.91214 4.17785 2.65179C4.22606 2.45571 4.27749 2.06358 4.48642 1.97358C4.50249 1.96715 4.52499 1.97358 4.53142 1.99286C4.56356 2.13108 4.47999 2.27251 4.44463 2.40751C4.39963 2.57465 4.35785 2.74178 4.32892 2.91214C4.2807 3.19821 4.41892 3.50358 4.34177 3.78322C4.29677 3.94072 4.1907 4.01786 4.06535 4.06607L4.45106 4.45179C4.51535 4.43893 4.57963 4.42286 4.64713 4.41322C4.71784 3.86357 4.81749 3.31715 4.95892 2.78679C5.02963 2.52643 5.10678 2.26929 5.19356 2.01857C5.24178 1.88357 5.28356 1.58143 5.4507 1.54929C5.46999 1.54607 5.4957 1.54929 5.50535 1.57179C5.52463 1.61358 5.52785 1.62322 5.50213 1.65857C5.49249 1.67464 5.36713 1.99929 5.3607 2.02179C5.32535 2.15036 5.28999 2.27894 5.25785 2.40751C5.19035 2.66786 5.13249 2.93143 5.08106 3.195C5.00392 3.58393 4.9557 3.97607 4.9107 4.37143C5.44749 4.28464 5.92963 4.04357 6.4632 3.93107C6.70749 3.87965 6.9582 3.8475 7.21213 3.825C7.44677 3.8025 7.73285 3.74786 7.96749 3.80893C8.0157 3.82179 8.03499 3.90215 7.98678 3.92465C7.75535 4.02108 7.4532 4.00179 7.2057 4.03072C6.93892 4.06286 6.67213 4.10786 6.41178 4.17857C6.15142 4.24929 5.90392 4.35215 5.6532 4.44536C5.40249 4.53858 5.14856 4.59 4.88499 4.62857C4.87856 4.69928 4.86892 4.77 4.85927 4.84071C4.85927 4.84393 4.85927 4.84714 4.85927 4.85357L5.20963 5.20393C5.20963 5.20393 5.23213 5.19107 5.24499 5.18464C5.5857 5.06893 5.92642 4.95965 6.27035 4.85679C6.54999 4.77322 6.90678 4.62215 7.2057 4.67679C7.26035 4.68643 7.27963 4.76679 7.24106 4.80214C7.02249 5.00143 6.63035 5.0625 6.3507 5.1525C6.04856 5.24571 5.74642 5.34536 5.4507 5.44822L6.86178 6.85928C6.86178 6.85928 6.87142 6.85607 6.87785 6.85286C6.79427 6.37715 6.9582 5.84679 7.04178 5.38072C7.08035 5.17179 7.38892 5.25214 7.35356 5.45464C7.27642 5.91107 7.11892 6.43179 7.22499 6.88822C7.24106 6.95894 7.2057 7.04251 7.14142 7.07786C7.12856 7.08429 7.11249 7.09071 7.09963 7.10036L7.53678 7.5375C7.56892 7.52465 7.60106 7.50857 7.6332 7.49572C7.6782 7.47643 7.72642 7.46036 7.77142 7.44429C7.85499 7.06179 7.93535 6.6825 8.04142 6.30643C8.20213 5.73107 8.36285 5.07536 8.67785 4.55465C8.74213 4.44536 8.89642 4.51286 8.87392 4.62857C8.74856 5.20071 8.49785 5.76 8.34677 6.33215C8.25999 6.66 8.19892 6.98786 8.13785 7.31572C8.47856 7.20965 8.8257 7.1325 9.18249 7.08429C9.45249 7.04893 9.71606 7.02964 9.98927 7.02964C10.2078 7.02964 10.6482 7.08107 10.8057 6.91071C10.9568 6.74679 11.2139 6.94929 11.1046 7.1325C10.9696 7.36071 10.6996 7.40571 10.4553 7.39286C10.15 7.38 9.8607 7.38643 9.55535 7.41214C9.05392 7.45393 8.54606 7.55036 8.06392 7.70786C8.04785 7.79786 8.03177 7.88786 8.01249 7.97786C8.01249 7.98429 8.00928 7.99393 8.00606 8.00036L8.43999 8.43429C8.4432 8.38929 8.44963 8.34429 8.43999 8.30251C8.42713 8.21572 8.48499 8.10643 8.58785 8.11286C8.94785 8.14179 9.31427 8.13214 9.67749 8.06786C9.83177 8.04214 10.1693 7.87179 10.2753 8.04857C10.3043 8.09679 10.2786 8.15144 10.2368 8.18358C10.2368 8.18358 10.2336 8.18357 10.2303 8.18679C10.2239 8.19 10.2143 8.19321 10.2078 8.19643C10.2046 8.2125 10.0953 8.24143 10.0825 8.24786C9.91856 8.3025 9.74177 8.33786 9.57142 8.36358C9.29499 8.40858 9.01856 8.42464 8.74213 8.41821C8.73892 8.51143 8.72285 8.60465 8.69713 8.69465L9.11178 9.10928L6.25427 11.9668C6.25427 11.9668 6.25427 11.9764 6.25427 11.9829C6.13856 12.3011 6.02285 12.6193 5.91999 12.9407C5.8107 13.2846 5.76249 13.6189 5.69177 13.9629C5.60499 14.3711 5.50213 14.7793 5.39927 15.1843C5.8332 15.1296 6.26713 15.075 6.70427 15.0332C7.06106 14.9979 7.41463 14.9561 7.77142 14.9336C7.9482 14.9239 8.12499 14.9143 8.30177 14.9079C8.38213 14.9047 8.46249 14.9046 8.54285 14.8982C8.53963 14.8982 8.79356 14.8532 8.72928 14.9143C9.03785 14.6314 9.3657 15.0718 9.03142 15.3257C8.90285 15.4254 8.75499 15.4029 8.61035 15.4061C8.44963 15.4093 8.28892 15.4254 8.12499 15.4382C7.77142 15.4671 7.41463 15.4961 7.06106 15.5218C6.46642 15.5636 5.87178 15.6439 5.27713 15.705C5.26428 15.7596 5.25142 15.8143 5.24178 15.8689C5.10678 16.4861 4.97177 17.1 4.91713 17.7204C4.90427 17.8843 4.89142 18.0514 4.88499 18.2186H4.47356H6.91963C7.15427 17.9711 7.38892 17.7236 7.62356 17.4761C8.13785 16.9361 8.62963 16.3639 9.16642 15.8464C9.31749 15.7018 9.5907 15.9782 9.4557 16.1357C8.96392 16.6982 8.4207 17.2189 7.9032 17.7557C7.75213 17.9132 7.59785 18.0643 7.44356 18.2186H8.03499C8.18285 18.0611 8.32749 17.9004 8.46892 17.7397C8.60392 17.5854 8.77106 17.4825 8.90606 17.3314C9.03785 17.1868 9.15035 17.0196 9.26606 16.8589C9.33999 16.7593 9.61963 16.2611 9.85428 16.4925C10.0921 16.7272 9.67106 17.055 9.5682 17.1643C9.4332 17.3057 9.28856 17.4407 9.16963 17.5982C9.04427 17.7622 8.96713 17.9486 8.83213 18.1061C8.79999 18.1446 8.76785 18.18 8.7357 18.2186H8.72606H9.35285C9.66785 17.9229 9.98606 17.6336 10.2914 17.3282C10.4939 17.1225 10.8893 17.5211 10.69 17.7268C10.5261 17.8939 10.3557 18.0579 10.1853 18.2186H10.9986C11.0532 18.1672 11.1078 18.1125 11.1657 18.0611C11.2846 17.955 11.4711 18.0868 11.5161 18.2186H11.23H13.8239C13.8014 18.1672 13.8046 18.1061 13.8625 18.0579C14.5921 17.4343 15.2093 16.7111 15.8553 16.0071C16.5046 15.3 17.1186 14.5672 17.7486 13.8407C17.8482 13.7282 18.0153 13.8471 17.9864 13.9789C17.9478 14.1557 17.9093 14.3325 17.9157 14.5125C17.9221 14.6925 17.98 14.8629 18.0089 15.0396C18.0314 15.1843 18.0346 15.3257 18.0218 15.4672L17.5718 15.9171C17.5878 15.8721 17.6071 15.8239 17.6232 15.7757C17.7389 15.4286 17.71 15.1457 17.6489 14.7921C17.6264 14.6571 17.6232 14.5286 17.6296 14.3968C16.495 15.6857 15.4503 17.0711 14.1614 18.2154H13.9878H15.2125H15.1868C15.2125 18.18 15.2382 18.1414 15.2639 18.1061C15.6143 17.6368 15.9936 17.2029 16.4436 16.8268C16.5014 16.7786 16.5978 16.785 16.6557 16.83L15.2703 18.2154L24.3828 9.10286L15.2639 0.00321742ZM6.61749 3.31715C6.4857 3.59679 6.14499 3.49714 5.95856 3.32357C5.8557 3.22714 5.73035 3.10179 5.7207 2.95715C5.71427 2.835 5.79142 2.72571 5.87178 2.64214C5.97142 2.53607 6.09035 2.52 6.22213 2.59071C6.31535 2.63893 6.46642 2.71286 6.51142 2.81893C6.63677 2.95715 6.69463 3.15965 6.6207 3.32036M7.41463 16.4154C7.27963 16.5729 6.95177 16.5632 6.77177 16.5889C6.5982 16.6114 6.42463 16.6339 6.24785 16.6596C6.3732 17.0164 6.22213 17.4279 6.09035 17.8425C6.00678 18.0996 5.61785 18.0193 5.70142 17.7621C5.82356 17.3829 6.04856 16.9554 5.73678 16.6661C5.59856 16.5375 5.73678 16.3254 5.90713 16.2964C6.2157 16.245 6.53392 16.2064 6.83927 16.2193C7.01927 16.2289 7.33106 16.2193 7.42106 16.3896C7.42428 16.3961 7.42106 16.4057 7.41785 16.4154M21.7921 8.23179C21.8082 8.07751 21.8114 7.91036 21.9078 7.78822C21.9336 7.75607 21.9818 7.74 22.0171 7.75286C22.1393 7.79464 22.1296 7.97786 22.1232 8.08714C22.1103 8.28 22.0878 8.47286 22.0653 8.66572C22.2518 8.61751 22.4286 8.53714 22.6053 8.44714C22.7082 8.39571 22.8432 8.53393 22.7468 8.63036C22.5186 8.85536 22.2357 8.97429 21.9303 9.02572C21.8082 9.04822 21.7246 8.96143 21.7343 8.82964C21.7503 8.63036 21.7696 8.42786 21.7921 8.22857M18.6357 4.60286C18.6357 4.60286 18.6357 4.59965 18.6389 4.59643C18.7096 4.48393 18.8446 4.43572 18.9636 4.48393C19.0793 4.52893 19.1371 4.65429 19.105 4.77643C19.0728 4.89215 18.9636 4.98857 18.8414 4.995C18.7193 5.00143 18.5939 4.90179 18.5778 4.78286C18.5682 4.71536 18.5875 4.64786 18.6325 4.60286M17.7357 3.64179C17.7903 3.54858 17.8996 3.51001 17.9928 3.55179C18.0153 3.56143 18.0378 3.58072 18.0571 3.60322C18.07 3.60965 18.0861 3.61928 18.0957 3.63536C18.1182 3.66428 18.1407 3.69322 18.1503 3.73179C18.1568 3.76393 18.1536 3.79286 18.1503 3.825C18.1407 3.88286 18.115 3.9375 18.07 3.97929C18.0121 4.03393 17.935 4.04036 17.8707 4.01143C17.7325 3.95036 17.6521 3.78964 17.7357 3.645M16.8871 2.61643C16.9257 2.61965 16.9643 2.62286 16.9996 2.62608C17.0478 2.62929 17.0993 2.65179 17.1218 2.69357C17.1378 2.70322 17.1539 2.71608 17.17 2.72894C17.2278 2.77394 17.2182 2.88 17.1636 2.93143C17.1057 2.98607 17.0382 3.00536 16.9739 3.00214C16.9096 3.06 16.8132 3.04393 16.7714 2.97321C16.7457 2.93143 16.7393 2.87679 16.7521 2.82536C16.7425 2.79965 16.7361 2.77071 16.7393 2.74179C16.7489 2.6775 16.8132 2.60679 16.8839 2.61322M16.0064 1.66501C16.0321 1.65858 16.0611 1.665 16.0836 1.67786C16.1382 1.65214 16.2025 1.65215 16.2443 1.70036C16.3182 1.78393 16.3407 1.92858 16.2861 2.03465C16.2346 2.13429 16.1253 2.19214 16.0193 2.16C15.9164 2.12786 15.8682 2.02501 15.8618 1.92536C15.8586 1.83215 15.8971 1.69072 16.0032 1.66501M14.7689 0.945001C14.8075 0.777858 14.9875 0.652502 15.1514 0.684644C15.2382 0.700716 15.2671 0.800358 15.2286 0.874286C15.2093 0.906429 15.1964 0.941789 15.1675 0.967503C15.1611 0.970717 15.1546 0.977149 15.1482 0.980363C15.2061 1.04465 15.1964 1.17 15.1096 1.22464C15.0228 1.27928 14.9071 1.26001 14.8364 1.19251C14.7721 1.13144 14.7528 1.035 14.7721 0.945001M14.1839 0.00321742C14.1839 0.0900031 14.1453 0.183221 14.0714 0.228221C13.9364 0.311793 13.7789 0.22822 13.7146 0.106077C13.6986 0.0739341 13.6857 0.0385746 13.6793 0.00321742H14.1871H14.1839ZM12.6411 0.00321742C12.6732 0.0257174 12.7053 0.0482213 12.7375 0.0675071C12.9046 0.176793 13.0621 0.289285 13.2196 0.411428C13.5282 0.649285 13.84 0.900007 14.1003 1.19251C14.3543 1.47858 14.5503 1.80643 14.7914 2.10215C15.0357 2.40429 15.3314 2.65179 15.6625 2.8575C15.9678 3.04393 16.2796 3.2175 16.5528 3.44893C16.8293 3.68357 17.0896 3.95357 17.3275 4.23C17.5782 4.51929 17.8064 4.81822 18.0957 5.06893C18.2403 5.19429 18.3914 5.31321 18.5489 5.4225C18.6582 5.49643 18.7611 5.52214 18.7546 5.66679C18.7546 5.70857 18.7096 5.73107 18.6807 5.75357C18.6389 5.78571 18.5843 5.77607 18.5425 5.75679C17.8868 5.47714 17.4207 4.87286 16.9771 4.33608C16.7393 4.05001 16.495 3.78322 16.1896 3.56786C15.8971 3.36214 15.5821 3.18536 15.28 2.99893C14.9714 2.80608 14.7014 2.58107 14.4796 2.28857C14.2546 1.99607 14.0553 1.69394 13.8014 1.42394C13.5314 1.13465 13.2421 0.874292 12.9239 0.63965C12.7761 0.530364 12.6282 0.424289 12.4836 0.315004C12.3518 0.218575 12.2071 0.135 12.1139 0H12.6411V0.00321742ZM11.7796 0.427505C11.9596 0.437148 12.1011 0.546429 12.2521 0.633215C12.4161 0.726429 12.5703 0.835722 12.7246 0.941793C13.0396 1.15394 13.3707 1.35643 13.6664 1.5975C13.9589 1.83536 14.1421 2.16322 14.3736 2.4525C14.5953 2.73214 14.8461 2.9925 15.1096 3.23679C15.6496 3.74143 16.2378 4.18822 16.7907 4.67679C17.0736 4.92108 17.3436 5.17822 17.5911 5.45786C17.7903 5.68286 18.0475 5.94321 18.0314 6.26786C18.0314 6.29679 17.9993 6.32571 17.9703 6.31607C17.6618 6.21321 17.4753 5.895 17.26 5.66679C17.0221 5.41607 16.7682 5.18143 16.5111 4.95643C15.9678 4.48072 15.3893 4.04036 14.8621 3.54536C14.6018 3.29786 14.3511 3.04071 14.1261 2.76107C13.9043 2.48464 13.7275 2.16322 13.4639 1.92536C13.1843 1.67465 12.85 1.47536 12.5414 1.26C12.3871 1.15393 12.2296 1.05107 12.085 0.932141C11.95 0.822855 11.7764 0.723214 11.7057 0.5625C11.6832 0.507857 11.7153 0.427499 11.7861 0.430713M11.2203 0.909648C11.4068 0.928934 11.59 1.03501 11.7539 1.11215C11.9146 1.18608 12.0689 1.26322 12.2168 1.35322C12.5028 1.52679 12.7761 1.73572 13.0043 1.98C13.2389 2.23072 13.4125 2.52964 13.6053 2.8125C13.8175 3.12429 14.0618 3.41679 14.3093 3.69643C15.2446 4.74429 16.6011 5.45143 17.2728 6.71785C17.3211 6.80464 17.1925 6.91072 17.125 6.83357C16.2121 5.76643 15.0486 4.995 14.0489 4.02107C13.5378 3.52286 13.2164 2.88965 12.7632 2.34322C12.5286 2.05715 12.2553 1.84179 11.9307 1.66501C11.6478 1.51072 11.2846 1.41108 11.0436 1.20215C10.9053 1.08001 11.0661 0.893577 11.2171 0.909648M16.6589 7.51178C16.5882 7.48607 16.54 7.425 16.5207 7.3575C16.5014 7.33822 16.4886 7.31894 16.4757 7.29001C16.4468 7.21608 16.4532 7.14536 16.5111 7.08107C16.5368 7.05214 16.5689 7.02643 16.6043 7.00715C16.6782 6.96858 16.7618 6.98143 16.81 7.04572C16.8228 7.06179 16.8293 7.08108 16.8357 7.09715C16.9 7.11322 16.9514 7.16465 16.9707 7.22894C17.0189 7.40894 16.8325 7.57608 16.6621 7.50858M16.1061 6.3C16.1061 6.32572 16.1028 6.35464 16.0932 6.37714C16.0836 6.40928 16.0675 6.43179 16.0482 6.45429C16.0128 6.51536 15.9582 6.56358 15.8875 6.57322C15.82 6.58286 15.7557 6.56358 15.7107 6.51536C15.6528 6.45751 15.6368 6.36428 15.6786 6.28714C15.6978 6.255 15.7203 6.2325 15.7493 6.21643C15.7493 6.21643 15.7493 6.21643 15.7493 6.21322C15.7589 6.20036 15.7718 6.18429 15.7814 6.17143C15.8168 6.13286 15.8682 6.11357 15.9196 6.11036C16.0225 6.10393 16.1093 6.19714 16.1061 6.29678M14.8428 5.25536C14.9071 5.23929 14.9586 5.25536 15.0036 5.29072C15.0389 5.31001 15.0678 5.34536 15.0807 5.38393L15.0936 5.41929C15.1 5.43536 15.1064 5.45143 15.1096 5.4675C15.1353 5.54143 15.0775 5.625 15.01 5.65714C15.0003 5.66036 14.9939 5.66357 14.9843 5.66679C14.965 5.68929 14.9425 5.70536 14.9168 5.72464C14.8428 5.77928 14.7303 5.72464 14.7143 5.64428C14.7078 5.60893 14.7078 5.57036 14.7143 5.535C14.6596 5.43214 14.7239 5.28751 14.8428 5.25858M14.0682 4.44215C14.0618 4.48072 14.0425 4.51286 14.0071 4.53536C13.9814 4.55143 13.9557 4.55786 13.93 4.55786C13.8882 4.59322 13.8303 4.60286 13.7789 4.58679C13.7564 4.57715 13.7403 4.56428 13.7243 4.54821C13.6953 4.52571 13.6728 4.49036 13.6632 4.44857C13.6375 4.35857 13.6568 4.26858 13.7178 4.19465C13.7596 4.14643 13.8207 4.14965 13.8689 4.17215C13.8914 4.17215 13.9139 4.17536 13.9332 4.18821C13.975 4.21071 14.0007 4.24607 14.0168 4.28786C14.0296 4.30393 14.0425 4.32322 14.0457 4.3425C14.0489 4.35857 14.0521 4.35858 14.0586 4.38429C14.065 4.40358 14.065 4.42286 14.0618 4.44536M13.0428 3.46822C12.9882 3.56143 12.8725 3.57108 12.7921 3.52286C12.7278 3.48429 12.6828 3.41036 12.6925 3.33321C12.6989 3.27536 12.7278 3.22393 12.7857 3.19822C12.8018 3.19179 12.8178 3.18857 12.8371 3.18536C12.9014 3.16929 12.9721 3.19821 13.0171 3.24321C13.0718 3.30107 13.0846 3.39429 13.0428 3.46822ZM12.0818 2.73858C12.0496 2.78358 12.0207 2.81571 11.9661 2.83178C11.9339 2.84143 11.7796 2.87036 11.7378 2.84464C11.6061 2.75786 11.6061 2.54893 11.6382 2.49429C11.7282 2.34965 11.8793 2.37536 11.8986 2.36893C11.9307 2.35928 11.9821 2.3625 12.0078 2.38179C12.0528 2.41072 12.0786 2.43965 12.0946 2.49429C12.1011 2.52643 12.0978 2.61322 12.1011 2.62929C12.1075 2.66144 12.1043 2.71286 12.0818 2.74179M10.9311 1.82893C10.9536 1.73572 11.0789 1.70357 11.14 1.76786C11.1593 1.78714 11.1721 1.80965 11.1786 1.83215C11.2043 1.845 11.2236 1.8675 11.2364 1.89643C11.2653 1.92536 11.2782 1.97036 11.2653 2.01857C11.2589 2.04107 11.2461 2.06357 11.2332 2.07964C11.2236 2.0925 11.2171 2.10536 11.2075 2.12143C11.1432 2.20822 11.0339 2.21464 10.9761 2.12786C10.9182 2.04107 10.9053 1.935 10.9311 1.83215M12.175 3.43929C12.4578 3.61608 12.8018 3.76714 13.0493 3.98893C13.2936 4.21072 13.3611 4.54822 13.5411 4.81822C13.7532 5.13644 14.0746 5.38714 14.3446 5.65714C14.6146 5.92072 14.9039 6.16179 15.1739 6.42536C15.6464 6.88822 16.1832 7.34465 16.4178 7.98108C16.4661 8.10965 16.2539 8.23822 16.1703 8.12893C15.9421 7.83 15.7171 7.52786 15.4696 7.24822C15.2318 6.98143 14.9489 6.75643 14.695 6.5025C14.1936 6.00429 13.6118 5.55108 13.2132 4.95643C13.0011 4.63822 12.9078 4.32321 12.5768 4.09821C12.2618 3.88607 11.9146 3.71572 11.59 3.52286C11.1271 3.24644 10.2721 2.90893 10.1982 2.28857C10.1789 2.12464 10.4103 1.99286 10.4907 2.16322C10.7993 2.80929 11.59 3.07929 12.1718 3.43929M9.23392 1.27286C9.35285 1.11536 9.47178 0.961071 9.5907 0.803571C9.70963 0.642857 9.82856 0.482146 9.95392 0.324646C10.0182 0.244289 10.1436 0.118932 10.1789 0.00321742H10.6032C10.555 0.318217 10.2593 0.594649 10.0632 0.819649C9.9057 1.00286 9.74499 1.18607 9.58749 1.36929C9.47177 1.5075 9.37856 1.70358 9.17928 1.69393C9.1407 1.69393 9.10535 1.66821 9.09249 1.62643C9.04749 1.46571 9.13749 1.39501 9.2307 1.27286M8.79999 3.72857C8.77106 3.60643 8.83213 3.45536 8.96392 3.41679C9.06035 3.38786 9.14713 3.45857 9.15999 3.54857C9.16963 3.555 9.18249 3.56143 9.18892 3.57108C9.28535 3.67715 9.23713 3.86036 9.08927 3.90857C8.95749 3.95036 8.82892 3.85072 8.79999 3.72857ZM10.0825 6.21964C10.0664 6.4125 9.8607 6.46715 9.69999 6.42215C9.42035 6.34179 8.82892 6.02036 9.00249 5.6475C9.15677 5.31964 9.73856 5.37107 9.8832 5.65714C9.89606 5.68286 9.89606 5.70858 9.8832 5.73108C9.99249 5.86608 10.0953 6.0525 10.0793 6.21964M10.4361 4.77322C10.2271 4.98857 9.85106 4.76358 9.9732 4.48393C10.0311 4.35215 10.2143 4.26857 10.3203 4.38107C10.3428 4.40357 10.3589 4.43571 10.3653 4.46785C10.4232 4.50321 10.4553 4.55786 10.4778 4.62214C10.4971 4.67036 10.4682 4.73464 10.4328 4.77M9.6132 3.10178C9.46856 2.90893 9.74499 2.62286 9.89606 2.81893C10.3268 3.36858 11.0211 3.66428 11.5836 4.06607C12.1621 4.48071 12.6346 4.97251 13.1071 5.49965C13.5893 6.03322 14.065 6.57643 14.5568 7.10036C14.8043 7.36393 15.0389 7.63715 15.2864 7.90072C15.4921 8.11929 15.7878 8.36036 15.8778 8.65929C15.9036 8.74286 15.8071 8.84572 15.7203 8.81679C15.4118 8.71072 15.1739 8.3925 14.9586 8.16108C14.7207 7.91036 14.4732 7.66928 14.2418 7.41214C13.7564 6.88178 13.2775 6.34179 12.805 5.79857C12.3293 5.25215 11.8086 4.74108 11.2171 4.32322C10.6739 3.94072 10.0214 3.63857 9.61642 3.10178M15.2189 9.22822C15.2157 9.27965 15.2028 9.3375 15.1771 9.3825C15.145 9.43714 15.0968 9.47572 15.0421 9.495C15.0196 9.50786 14.9907 9.52072 14.965 9.52715C14.9071 9.54 14.8525 9.53678 14.8011 9.51107C14.7561 9.48857 14.7078 9.43072 14.7014 9.37929C14.6918 9.31822 14.6918 9.26035 14.7078 9.19928C14.7271 9.14143 14.7593 9.08357 14.8043 9.04179C14.8878 8.96143 15.0293 8.95179 15.1064 9.03214C15.1064 9.03214 15.1096 9.03536 15.1128 9.03857C15.1771 9.07714 15.2253 9.14786 15.2189 9.22822ZM14.3896 8.66572C14.3671 8.70751 14.3093 8.75893 14.2611 8.76536C14.1871 8.77822 14.1228 8.77822 14.0586 8.74286C14.0136 8.71715 13.9718 8.67536 13.9461 8.63036C13.9203 8.58536 13.9043 8.5275 13.9075 8.47607C13.9075 8.4375 13.9203 8.38608 13.9428 8.35072C13.9686 8.31215 13.9975 8.28321 14.0361 8.2575C14.1132 8.20286 14.2193 8.22858 14.2771 8.28322C14.2964 8.30251 14.3125 8.32179 14.3253 8.34107C14.3671 8.38929 14.3961 8.44714 14.4186 8.50821C14.4346 8.55643 14.4186 8.6175 14.3928 8.6625M13.5314 7.82357C13.5153 7.87178 13.48 7.91357 13.4286 7.93607C13.3482 7.97143 13.255 7.9425 13.2132 7.86857C13.1939 7.83643 13.1875 7.79786 13.1811 7.75929C13.1232 7.65643 13.1714 7.51179 13.2807 7.45393C13.3321 7.425 13.3932 7.42822 13.4382 7.46036C13.4993 7.47644 13.5378 7.53429 13.5475 7.59536C13.5989 7.65643 13.5989 7.76571 13.5346 7.82357M12.5832 6.62143C12.5928 6.69536 12.5671 6.7725 12.4996 6.81107C12.4386 6.84643 12.3421 6.84321 12.3003 6.78857C12.2682 6.74678 12.2489 6.70179 12.2361 6.65679C12.1878 6.60858 12.1621 6.54429 12.1621 6.47358C12.1621 6.43179 12.1718 6.38679 12.2071 6.35143C12.2232 6.33536 12.2425 6.32572 12.2618 6.31929C12.2682 6.31929 12.2714 6.31929 12.2778 6.31929C12.2778 6.31929 12.2811 6.31928 12.2875 6.31607C12.3068 6.30964 12.3261 6.31607 12.3421 6.32893C12.4 6.3 12.4707 6.30965 12.5286 6.35465C12.5993 6.41251 12.6057 6.5025 12.5768 6.57964C12.58 6.5925 12.5832 6.60857 12.5864 6.62143M12.6346 8.44072C12.6346 8.44072 12.6443 8.45357 12.6507 8.46C12.6603 8.46 12.67 8.46643 12.6764 8.46964C12.9014 8.55964 13.0171 8.865 12.9721 9.07393C12.9207 9.31179 12.7053 9.45643 12.4611 9.44679C12.2361 9.44036 11.9403 9.36965 11.8793 9.1125C11.8278 8.89072 11.9371 8.6625 12.1011 8.53072C12.2328 8.42143 12.4675 8.31215 12.6346 8.44072ZM11.7218 5.62179C11.7057 5.69894 11.6511 5.76965 11.5836 5.80822C11.5257 5.86286 11.4421 5.87572 11.3811 5.83072C11.3071 5.805 11.2428 5.74715 11.2428 5.67C11.2428 5.63465 11.2653 5.6025 11.2943 5.58321C11.3071 5.57678 11.32 5.57036 11.3296 5.56715C11.3296 5.56715 11.3296 5.56072 11.3296 5.5575C11.3489 5.49322 11.3875 5.43536 11.4421 5.39679C11.5128 5.34857 11.6157 5.36143 11.6703 5.41607C11.7218 5.4675 11.7314 5.54465 11.7153 5.61858M9.06035 9.84536C9.22106 9.70714 9.47499 9.69751 9.6807 9.65893C9.88963 9.62036 10.1018 9.58179 10.3139 9.54643C10.285 9.39215 10.2625 9.24108 10.2561 9.08679C10.2528 9.00643 10.2464 8.92286 10.2625 8.84572C10.2786 8.75572 10.3461 8.67857 10.3043 8.57893C10.2336 8.415 10.4746 8.30572 10.5871 8.42465C10.735 8.57894 10.6932 8.70107 10.645 8.87786C10.5775 9.1125 10.6611 9.42107 10.7093 9.66214C10.7286 9.75857 10.6868 9.86786 10.5839 9.88393C10.3332 9.92893 10.0825 9.97393 9.83178 10.0157C9.61642 10.0511 9.38499 10.1154 9.1632 10.0864C9.05392 10.0736 8.96713 9.92893 9.06035 9.84536ZM7.6557 14.4739C7.21213 14.5125 6.76856 14.5479 6.32178 14.5832C6.22856 14.5897 6.13535 14.49 6.18035 14.3904C6.2607 14.2039 6.33142 14.0143 6.38928 13.8214C6.40856 13.7604 6.45356 13.635 6.48249 13.5129C6.46963 13.4743 6.4632 13.4357 6.46963 13.3939C6.47606 13.3554 6.48892 13.3264 6.51142 13.2975C6.51142 13.2879 6.5082 13.2782 6.50177 13.2718C6.49213 13.2557 6.50177 13.2332 6.51785 13.2204C6.53713 13.2075 6.55642 13.1946 6.57249 13.185C6.60142 13.1657 6.63999 13.1657 6.66892 13.1818C6.8232 13.1143 7.02249 13.0918 7.13177 13.0596C7.39856 12.9857 7.57213 12.9343 7.65892 13.2204C7.70392 13.3747 7.72642 13.5418 7.74249 13.7025C7.75535 13.815 7.71677 14.0946 7.79392 14.1686C7.89999 14.2714 7.80035 14.4643 7.65249 14.4771M9.85428 12.3557C9.82535 12.735 9.49106 12.9825 9.12463 12.9118C8.95106 12.8796 8.72285 12.7929 8.62963 12.6225C8.54928 12.4779 8.55892 12.285 8.60713 12.1436C8.66177 11.9764 8.78392 11.8414 8.94463 11.7804C9.0282 11.7482 9.13106 11.7257 9.22428 11.7418C9.5907 11.6421 9.87999 11.9989 9.85428 12.3557ZM10.5068 13.4422C10.4168 13.6254 10.3525 13.9886 10.1114 14.0111C9.89927 14.0336 9.74177 13.7282 9.9507 13.6286C9.91535 13.6446 10.0021 13.4936 10.015 13.4679C10.0407 13.41 10.0664 13.3521 10.0921 13.2943C10.1532 13.1464 10.1982 12.9921 10.2593 12.8443C10.3653 12.5904 10.5132 12.3589 10.6225 12.1082C10.735 11.8511 10.8507 11.5971 10.9311 11.3271C11.005 11.0796 10.9632 10.7904 10.9568 10.5268C10.8796 10.5429 10.8057 10.5589 10.7286 10.575C10.1564 10.7036 9.60035 10.89 9.0507 11.0764C8.7582 11.1761 8.47213 11.2789 8.18606 11.385C7.95785 11.4686 7.67178 11.6293 7.42106 11.5875C7.35999 11.5779 7.2957 11.5039 7.33749 11.4429C7.48213 11.2371 7.77785 11.1568 8.00606 11.0636C8.27285 10.9575 8.54928 10.8611 8.82249 10.7646C9.37213 10.575 9.9282 10.3982 10.5003 10.2536C10.6514 10.215 10.8025 10.1829 10.9568 10.1539C10.9664 9.71678 11.005 9.28286 11.0661 8.85857C11.1014 8.60143 11.1464 8.3475 11.2075 8.09679C11.2589 7.89429 11.2911 7.60822 11.4614 7.47643C11.4968 7.45072 11.545 7.46036 11.5611 7.50536C11.6414 7.74 11.5161 8.03251 11.4743 8.26394C11.4196 8.54679 11.3714 8.82964 11.3393 9.11893C11.3007 9.44357 11.3007 9.77143 11.3007 10.0993C11.5996 10.0575 11.8986 10.0254 12.2071 9.99321C12.5125 9.96107 12.8146 9.92572 13.1168 9.8775C13.4189 9.82607 13.7178 9.72643 14.0264 9.6975C14.2032 9.67822 14.3575 9.93536 14.1711 10.0157C13.66 10.2375 13.0043 10.2921 12.445 10.3307C12.0561 10.3596 11.6768 10.3982 11.2975 10.4593C11.2975 10.62 11.2911 10.7775 11.2782 10.9382C11.2589 11.2243 11.2461 11.5232 11.1689 11.7964C11.0918 12.0729 10.9825 12.3364 10.8828 12.6064C10.7768 12.8989 10.6353 13.1625 10.5003 13.4357M16.2989 11.9379C16.2828 12.1693 16.2668 12.4071 16.2314 12.6418C16.1993 12.8571 16.1093 13.0307 16.0193 13.2107C16.0032 13.2429 15.9871 13.275 15.9711 13.3071L15.9486 13.4486C15.9164 13.6607 15.8553 13.8696 15.8071 14.0271C15.7975 14.0979 15.7878 14.1814 15.7718 14.265C15.7493 14.3679 15.7236 14.4771 15.685 14.5993L15.6721 14.6764C15.6657 14.7214 15.6593 14.7632 15.6496 14.8082C15.6432 14.8372 15.64 14.8725 15.6368 14.9079C15.6239 15.03 15.6078 15.1682 15.5371 15.2711C15.46 15.3836 15.325 15.435 15.2157 15.4768L15.1771 15.4929C14.9361 15.5861 14.6853 15.6536 14.4475 15.7146C14.3093 15.75 14.1646 15.7886 14.0232 15.8336C13.7564 15.9171 13.4864 16.0168 13.2261 16.1164C13.1553 16.1421 13.0814 16.1711 13.0075 16.1968C12.4032 16.4218 11.7539 16.6275 11.1046 16.5954C11.0693 16.5954 11.0403 16.5793 11.0146 16.5536C11.0146 16.5536 11.0114 16.5504 11.0082 16.5471C10.9761 16.5118 10.96 16.4604 10.9632 16.4122C11.0275 15.6632 11.185 14.9207 11.4357 14.1975C11.455 14.1396 11.4775 14.0818 11.4968 14.0239C11.5418 13.8986 11.59 13.7668 11.6253 13.6382C11.6639 13.4904 11.6736 13.3521 11.6832 13.2043C11.6832 13.1561 11.6896 13.1079 11.6928 13.0564C11.7121 12.8314 11.7796 12.4104 12.0143 12.1307C12.1878 11.925 12.5157 11.8768 12.7793 11.8382C12.85 11.8286 12.9143 11.8189 12.9689 11.8061C13.3803 11.7225 13.795 11.6454 14.2 11.5746C14.5953 11.5071 14.9939 11.4493 15.3893 11.3979C15.4311 11.3914 15.4728 11.385 15.5146 11.3818C15.7718 11.3432 16.0643 11.3014 16.2475 11.4911C16.3021 11.5136 16.3311 11.565 16.3246 11.6293C16.315 11.7289 16.3086 11.8286 16.3021 11.9314M16.9482 10.4304C16.6268 10.4111 16.27 10.2954 15.9614 10.4271C15.8393 10.4786 15.6882 10.2986 15.7686 10.1764C16.045 9.75857 16.4018 9.40179 16.7328 9.03536C17.08 8.65608 17.4496 8.30251 17.8128 7.94251C18.1664 7.59215 18.5071 7.23215 18.8446 6.86572C19.2014 6.47679 19.4939 6.03643 19.8314 5.63143C19.9053 5.54143 20.0339 5.63464 20.0114 5.7375C20.0307 5.75357 20.0468 5.77608 20.0532 5.80179C20.0532 5.80822 20.0564 5.81464 20.0596 5.82428C20.0757 5.89178 20.0436 5.94643 19.9986 5.97215C19.9953 6.04608 19.9986 6.3225 19.9986 6.37072C19.9889 6.5475 19.9857 6.72108 19.9793 6.89786C19.9664 7.23215 19.9407 7.56964 19.9214 7.90393C19.8796 8.57571 19.8411 9.24751 19.8121 9.91929C19.8057 10.0414 19.7125 10.1475 19.5871 10.1154C19.3075 10.0414 18.9764 10.0157 18.6936 10.0864C18.3946 10.1604 18.115 10.2825 17.8096 10.3436C17.5236 10.4014 17.2407 10.4496 16.9482 10.4336M18.9153 12.195C18.8671 12.4361 18.7868 12.6611 18.7 12.8893C18.6582 13.005 18.4975 12.9921 18.4428 12.8957C18.43 12.8732 18.4236 12.8443 18.4236 12.8154C18.4332 12.6804 18.4461 12.5421 18.4653 12.4104C18.3496 12.4264 18.2339 12.4329 18.1214 12.4104C18.0153 12.3911 17.9736 12.2014 18.0796 12.1532C18.2725 12.0632 18.4525 11.9829 18.6582 11.9314C18.8028 11.8961 18.9507 12.0246 18.9153 12.1886M21.4996 11.9539C21.4836 11.9829 21.4611 12.0118 21.4418 12.0407C21.4353 12.0471 21.4289 12.0568 21.4225 12.0632V12.0696L21.3357 12.1564C21.3357 12.1564 21.3228 12.1629 21.3132 12.1629C21.2778 12.1661 21.2393 12.15 21.2136 12.1211C21.1718 12.0729 21.1653 12.0182 21.1878 11.9604C21.2071 11.9057 21.2553 11.88 21.2907 11.8414C21.3293 11.7996 21.3582 11.7386 21.4096 11.7097C21.4546 11.6839 21.5318 11.7 21.5414 11.7643C21.5543 11.8382 21.535 11.8929 21.4996 11.9539ZM22.1971 11.295C21.7536 11.3014 21.31 11.2275 20.86 11.2243C20.7861 11.2243 20.6864 11.1986 20.635 11.2596C20.5771 11.3239 20.6189 11.3979 20.6414 11.4782C20.6864 11.6357 20.7282 11.7932 20.7636 11.9507C20.8118 12.1693 20.8503 12.3879 20.8825 12.6096L20.6061 12.8861C20.5932 12.7896 20.5868 12.6932 20.5707 12.5968C20.5161 12.2336 20.4228 11.8832 20.3296 11.5264C20.2718 11.3079 20.2428 11.0379 20.4711 10.9254C20.5964 10.8643 20.7507 10.8836 20.8857 10.8868C21.0657 10.89 21.2457 10.9061 21.4257 10.9254C21.76 10.9607 22.0975 11.0057 22.435 10.9639C22.4736 10.9607 22.5089 10.9511 22.5443 10.9446L22.1971 11.2918V11.295ZM23.7046 9.78429C23.5696 9.82286 23.4346 9.85822 23.2964 9.89036C23.0071 9.95465 22.7178 10.0125 22.4286 10.0671C22.1618 10.1154 21.8982 10.1507 21.6282 10.1829C21.4128 10.2086 21.1043 10.3275 20.8953 10.2054C20.8953 10.2054 20.8889 10.2021 20.8857 10.1989C20.7539 10.395 20.5096 10.5686 20.3521 10.7164C20.1143 10.9382 19.87 11.1536 19.6321 11.3754C19.6193 11.385 19.6096 11.3946 19.5968 11.4011C19.6868 11.6518 19.5646 12.0246 19.5518 12.2496C19.5228 12.6675 19.4328 13.1304 19.5036 13.5482C19.5357 13.7475 19.2625 13.8471 19.2143 13.6382C19.1371 13.32 19.1628 13.0082 19.1886 12.6836C19.2046 12.4779 19.2303 12.2754 19.24 12.0696C19.2432 11.9764 19.2432 11.88 19.2464 11.7868C19.2464 11.7386 19.2786 11.5746 19.2561 11.5457C19.2464 11.5329 18.8961 11.5136 18.835 11.5071C18.6743 11.4943 18.5136 11.5071 18.3561 11.5232C18.0539 11.5554 17.7518 11.5971 17.4528 11.6614C17.4239 11.6871 17.3821 11.7032 17.3307 11.7032C17.3082 11.7032 17.2825 11.7032 17.26 11.7032C17.0478 11.6968 16.9611 11.3336 17.1925 11.2886C17.5718 11.2114 17.9511 11.1536 18.34 11.16C18.5521 11.16 18.7643 11.16 18.9764 11.1568C19.0857 11.1568 19.2175 11.1439 19.33 11.1729C19.3396 11.1536 19.3525 11.1375 19.3686 11.1214C19.8153 10.7293 20.2396 10.3146 20.7057 9.95144C20.6768 9.84215 20.68 9.71679 20.6864 9.60429C20.7057 9.30214 20.7282 9.00964 20.725 8.7075C20.7153 8.07107 20.6832 7.45072 20.6221 6.81751C20.5964 6.54751 20.9789 6.54429 21.0111 6.80786C21.0721 7.30929 21.0978 7.83321 21.1043 8.33786C21.1075 8.595 21.0946 8.84571 21.085 9.09964C21.0818 9.22821 21.0239 9.79072 21.1107 9.83572C21.175 9.87107 21.3614 9.81964 21.4353 9.81321C21.5639 9.80357 21.6893 9.78107 21.8146 9.765C22.0525 9.72964 22.2903 9.70393 22.525 9.66858C22.9911 9.59786 23.4732 9.45 23.9457 9.43071C23.9778 9.43071 24.0036 9.44036 24.0261 9.45965L23.6982 9.7875C23.6982 9.7875 23.6982 9.7875 23.695 9.7875" fill="#C20831"/>
<path d="M17.7451 9.1574C17.6133 9.28598 17.7933 9.47883 17.9347 9.4049C18.2272 9.2474 18.4554 9.00633 18.6804 8.75562C18.9183 8.48883 19.169 8.24454 19.3554 7.92954C19.4197 7.82347 19.2815 7.6949 19.1883 7.7624C18.9087 7.95525 18.6901 8.21562 18.4522 8.46312C18.224 8.70097 17.9862 8.92918 17.7515 9.16061" fill="#CE494F"/>
<path d="M17.8168 7.93919C17.4536 8.29919 17.0808 8.65276 16.7368 9.03205C16.4025 9.39848 16.049 9.75526 15.7725 10.1731C15.6922 10.292 15.8433 10.4753 15.9654 10.4238C16.274 10.2921 16.6308 10.411 16.9522 10.427C17.2447 10.4431 17.5275 10.3949 17.8136 10.337C18.1158 10.276 18.3986 10.1538 18.6975 10.0799C18.9772 10.0092 19.3115 10.0349 19.5911 10.1088C19.7133 10.141 19.8097 10.0349 19.8161 9.91276C19.845 9.24097 19.8868 8.5692 19.9254 7.90062C19.9447 7.56634 19.9736 7.22884 19.9865 6.89455C19.9929 6.71777 19.9961 6.54419 20.0058 6.3674C20.0058 6.31919 20.0058 6.04276 20.0058 5.96884C20.0508 5.94312 20.0829 5.88848 20.0668 5.82098C20.0668 5.81455 20.0636 5.80812 20.0604 5.79848C20.054 5.76955 20.0379 5.75026 20.0186 5.73419C20.0411 5.63133 19.9125 5.53812 19.8386 5.62812C19.5011 6.03312 19.2086 6.47348 18.8518 6.86241C18.5143 7.22883 18.1736 7.58884 17.82 7.93919M19.7004 6.37384C19.6715 6.75634 19.6361 7.13883 19.6104 7.52455C19.5622 8.24133 19.5172 8.96134 19.4625 9.67812C19.2247 9.63955 18.9933 9.65883 18.749 9.70383C18.4372 9.76169 18.1286 9.81312 17.8265 9.91919C17.505 10.0285 17.1772 10.096 16.8365 10.0703C16.6533 10.0574 16.4829 10.0381 16.3093 10.0381C16.3865 9.93848 16.4668 9.83562 16.544 9.73598C16.7015 9.53348 16.8943 9.3599 17.0743 9.1799C17.4247 8.82633 17.7815 8.47919 18.135 8.12884C18.6879 7.58241 19.2729 6.99097 19.7036 6.30633C19.7036 6.32883 19.7036 6.35455 19.7036 6.37384" fill="#CE494F"/>
<path d="M9.44623 16.1421C9.58123 15.9878 9.30802 15.7081 9.15694 15.8528C8.62016 16.3703 8.12837 16.9424 7.61409 17.4824C7.37944 17.7299 7.1448 17.9774 6.91016 18.2249H7.43409C7.58837 18.0706 7.74266 17.9163 7.89373 17.7621C8.41123 17.2221 8.95444 16.7046 9.44623 16.1421Z" fill="#CE494F"/>
<path d="M7.2191 6.89141C7.11303 6.43498 7.27053 5.91427 7.34768 5.45784C7.38303 5.25212 7.07125 5.17177 7.03589 5.3807C6.95232 5.84998 6.78518 6.37712 6.87196 6.85284C6.86875 6.85284 6.86232 6.85605 6.85589 6.85926L7.09696 7.10033C7.09696 7.10033 7.12589 7.08748 7.13875 7.07784C7.20625 7.04248 7.23839 6.95891 7.22232 6.8882" fill="#CE494F"/>
<path d="M15.6778 6.29059C15.636 6.36773 15.652 6.46094 15.7099 6.5188C15.7581 6.5638 15.8192 6.58631 15.8867 6.57666C15.9606 6.56381 16.0153 6.5188 16.0474 6.45773C16.0667 6.43523 16.0795 6.40952 16.0924 6.38059C16.0988 6.35487 16.102 6.32916 16.1053 6.30345C16.1085 6.2038 16.0217 6.11058 15.9188 6.11701C15.8706 6.12023 15.816 6.13951 15.7806 6.17809C15.771 6.19094 15.7581 6.20702 15.7485 6.21987C15.7485 6.21987 15.7485 6.21988 15.7485 6.22309C15.7195 6.23916 15.6938 6.26166 15.6778 6.29381" fill="#CE494F"/>
<path d="M21.4456 12.0405C21.4649 12.0116 21.4841 11.9826 21.5034 11.9537C21.5388 11.8926 21.5581 11.838 21.5452 11.7641C21.5324 11.6998 21.4584 11.6837 21.4134 11.7094C21.362 11.7384 21.3363 11.7962 21.2945 11.8412C21.2591 11.8798 21.2109 11.9055 21.1916 11.9602C21.1691 12.018 21.1788 12.0727 21.2174 12.1209C21.2431 12.1498 21.2816 12.1691 21.317 12.1626C21.3234 12.1626 21.3299 12.1594 21.3395 12.1562L21.4263 12.0694C21.4263 12.0694 21.4263 12.0662 21.4263 12.063C21.4327 12.0566 21.4391 12.0469 21.4456 12.0405Z" fill="#CE494F"/>
<path d="M4.05007 1.87406C3.72864 1.85156 3.39757 1.85478 3.07292 1.85156C2.87685 1.85156 2.774 1.88692 2.72578 2.09585C2.684 2.26942 2.64864 2.4462 2.61328 2.62299L2.80292 2.81263C2.82864 2.70013 2.86078 2.58442 2.88328 2.47192C2.89614 2.41406 2.91864 2.13764 2.96364 2.10549C3.01185 2.07014 3.17578 2.10228 3.23685 2.10549C3.50364 2.11192 3.77042 2.12799 4.03721 2.11834C4.19471 2.11192 4.19471 1.89013 4.04685 1.88049" fill="#CE494F"/>
<path d="M1.21336 0.764914C1.16514 0.858129 1.06229 0.915991 0.943359 0.951348L1.1555 1.16348C1.30657 1.0992 1.43514 0.996343 1.48014 0.835629C1.55407 0.572058 1.58943 0.285991 1.62157 0.00634766H1.34193C1.33229 0.0609905 1.32586 0.118844 1.31622 0.173487C1.2905 0.337416 1.2905 0.61706 1.21336 0.768132" fill="#CE494F"/>
<path d="M18.7955 9.3632C18.8373 9.40499 18.9241 9.42749 18.9723 9.38249C19.0655 9.30213 19.1394 9.1832 19.2166 9.08035C19.3066 8.9582 19.1651 8.80071 19.0558 8.88428C18.9498 8.94856 18.818 9.05464 18.7633 9.17678C18.7344 9.23785 18.7473 9.31499 18.7955 9.3632Z" fill="#CE494F"/>
<path d="M17.8715 4.00814C17.939 4.03707 18.0162 4.03064 18.0708 3.97599C18.1126 3.93421 18.1415 3.87957 18.1512 3.82171C18.1576 3.78957 18.1576 3.76064 18.1512 3.7285C18.1448 3.68993 18.119 3.661 18.0965 3.63207C18.0869 3.61922 18.074 3.60957 18.058 3.59993C18.0419 3.57743 18.0194 3.55814 17.9937 3.5485C17.9005 3.50671 17.7912 3.5485 17.7365 3.6385C17.6498 3.78314 17.7333 3.94707 17.8715 4.00493" fill="#CE494F"/>
<path d="M16.753 2.82555C16.7401 2.87376 16.7466 2.9284 16.7723 2.9734C16.8141 3.04411 16.9105 3.06018 16.9748 3.00233C17.0391 3.00554 17.1098 2.98626 17.1644 2.93161C17.2191 2.88018 17.2287 2.77412 17.1708 2.72912C17.1548 2.71626 17.1387 2.7034 17.1226 2.69376C17.1001 2.65197 17.0487 2.62948 17.0005 2.62626C16.9619 2.62626 16.9234 2.61983 16.888 2.61662C16.8173 2.61019 16.753 2.6809 16.7433 2.74519C16.7401 2.7709 16.7433 2.79983 16.7562 2.82555" fill="#CE494F"/>
<path d="M18.6354 4.60297C18.5872 4.64797 18.5712 4.71547 18.5808 4.78297C18.5969 4.90511 18.7222 5.00154 18.8444 4.99511C18.9633 4.98868 19.0758 4.89226 19.1047 4.77654C19.1369 4.6544 19.079 4.52904 18.9633 4.48404C18.8444 4.43904 18.7094 4.48404 18.6387 4.59654C18.6387 4.59654 18.6387 4.59975 18.6354 4.60297Z" fill="#CE494F"/>
<path d="M16.0229 2.15991C16.129 2.19205 16.2383 2.1342 16.2897 2.03456C16.3443 1.92849 16.3186 1.78384 16.2447 1.70027C16.2029 1.65206 16.1386 1.65205 16.084 1.67777C16.0615 1.6617 16.0358 1.65849 16.0068 1.66492C15.9008 1.69063 15.8622 1.83206 15.8654 1.92528C15.8686 2.02813 15.9201 2.13098 16.0229 2.15991Z" fill="#CE494F"/>
<path d="M14.8351 1.1927C14.9058 1.25698 15.0215 1.27947 15.1083 1.22483C15.1983 1.17019 15.208 1.04484 15.1501 0.980552C15.1565 0.977337 15.1629 0.97412 15.1694 0.967692C15.1983 0.941977 15.2112 0.909832 15.2305 0.874475C15.269 0.800546 15.2401 0.700904 15.1533 0.684833C14.9894 0.655904 14.8094 0.781261 14.7708 0.945189C14.7515 1.03519 14.7708 1.13162 14.8351 1.1927Z" fill="#CE494F"/>
<path d="M3.43723 0.726144C3.7233 0.732573 3.9933 0.526862 4.04152 0.237576C4.05437 0.157219 4.05116 0.0768583 4.02866 0.00292969H3.73295C3.7458 0.0222154 3.76188 0.0415019 3.77152 0.0640019C3.8358 0.221502 3.73938 0.407931 3.56259 0.456145C3.48545 0.478645 3.36973 0.481855 3.33116 0.41114C3.29259 0.34364 3.33759 0.240783 3.37938 0.170069C3.42116 0.102569 3.4758 0.0479297 3.53688 0.00292969H3.20259C3.16402 0.0543583 3.12866 0.109001 3.10295 0.173286C2.97759 0.475429 3.11259 0.719715 3.43723 0.726144Z" fill="#CE494F"/>
<path d="M12.4829 0.318134C12.6308 0.427419 12.7786 0.536699 12.9233 0.64277C13.2415 0.877413 13.5308 1.13777 13.8008 1.42706C14.0515 1.69706 14.254 1.9992 14.479 2.2917C14.7008 2.58099 14.9708 2.8092 15.2794 3.00205C15.5815 3.1917 15.8965 3.36849 16.189 3.57099C16.4944 3.78635 16.7386 4.05313 16.9765 4.3392C17.4201 4.87277 17.8829 5.47706 18.5419 5.75992C18.5836 5.77599 18.6383 5.78884 18.6801 5.7567C18.709 5.7342 18.7508 5.7117 18.754 5.66992C18.7572 5.52206 18.6544 5.49634 18.5483 5.42563C18.3876 5.31956 18.2397 5.20063 18.0951 5.07206C17.8058 4.81813 17.5776 4.52242 17.3269 4.23313C17.089 3.9567 16.8319 3.68671 16.5522 3.45206C16.279 3.22063 15.9672 3.04705 15.6619 2.86063C15.3308 2.65491 15.0351 2.41063 14.7908 2.10528C14.5497 1.80956 14.3536 1.4817 14.0997 1.19563C13.8394 0.903127 13.5276 0.652416 13.219 0.414558C13.0615 0.292416 12.9008 0.179913 12.7369 0.0706275C12.7047 0.0481275 12.6726 0.0288477 12.6404 0.00634766H12.1133C12.2065 0.141348 12.3511 0.224913 12.4829 0.321341" fill="#CE494F"/>
<path d="M21.7356 8.83269C21.7228 8.96448 21.8096 9.04804 21.9317 9.02876C22.2371 8.97733 22.5199 8.85841 22.7481 8.63341C22.8478 8.53698 22.7096 8.39876 22.6067 8.45019C22.4299 8.54019 22.2531 8.62054 22.0667 8.66876C22.0892 8.4759 22.1117 8.28305 22.1246 8.09019C22.131 7.98091 22.1406 7.79769 22.0185 7.7559C21.9799 7.74305 21.9317 7.75912 21.9092 7.79126C21.8096 7.91341 21.8096 8.08054 21.7935 8.23483C21.771 8.43411 21.7549 8.63341 21.7356 8.83591" fill="#CE494F"/>
<path d="M12.8675 12.9408C12.8804 12.9858 12.9221 13.0083 12.9704 13.0018C13.07 12.9858 13.1632 12.9954 13.2629 13.0018C13.3079 13.0051 13.3561 13.0083 13.4011 13.0115C13.5586 13.0147 13.7 12.9826 13.8639 12.9343C14.1918 12.8443 14.5293 12.8251 14.8571 12.8026C14.9054 12.8026 14.9536 12.7961 14.9986 12.7929C14.9761 12.9343 14.8989 13.0726 14.8186 13.214C14.7768 13.2879 14.735 13.3618 14.7029 13.4358C14.6321 13.5933 14.5968 13.7572 14.5614 13.9147C14.5389 14.024 14.5132 14.1397 14.4779 14.249C14.4457 14.3454 14.4264 14.3872 14.3493 14.4418C14.2946 14.4804 14.2304 14.4997 14.1629 14.519C14.15 14.5222 14.1339 14.5286 14.1211 14.5318C13.97 14.58 13.8093 14.6218 13.6004 14.6733C13.4782 14.7022 13.3561 14.7311 13.2339 14.7601C13.1182 14.7858 13.0025 14.8115 12.8868 14.8404C12.9736 14.4708 13.0443 14.1301 13.0989 13.7958C13.4621 13.7411 13.8221 13.6704 14.1757 13.5804C14.285 13.5515 14.3236 13.4551 14.3043 13.3747C14.285 13.3008 14.2143 13.2397 14.1146 13.2654C13.7386 13.3586 13.3496 13.4293 12.9575 13.4776C12.8675 13.4872 12.7968 13.5611 12.7807 13.6511C12.6971 14.1654 12.6039 14.6154 12.5043 15.03C12.4882 15.0911 12.5043 15.149 12.5396 15.1843C12.5782 15.2229 12.6329 15.2326 12.6939 15.2197C12.8321 15.1843 12.9736 15.1522 13.1118 15.1201C13.3754 15.059 13.6518 14.9947 13.9218 14.9143C13.9604 14.9015 14.0021 14.8918 14.0407 14.8822C14.3139 14.8083 14.5968 14.7343 14.7221 14.4226C14.7832 14.2683 14.8154 14.1108 14.8475 13.9597C14.8861 13.7701 14.9246 13.5868 15.0146 13.41C15.0307 13.3811 15.0436 13.3522 15.0596 13.3233C15.1786 13.0918 15.2943 12.8733 15.2782 12.6129C15.2782 12.584 15.2621 12.5583 15.2396 12.539C15.2139 12.5165 15.1786 12.5036 15.1432 12.5068C15.0404 12.5165 14.9343 12.5229 14.8314 12.5293C14.5293 12.5486 14.2175 12.5647 13.9154 12.645L13.88 12.6547C13.6904 12.7061 13.5264 12.7511 13.3368 12.7383C13.1857 12.7286 13.0668 12.7383 12.9318 12.7961C12.8771 12.8218 12.845 12.8861 12.8611 12.9408" fill="#CE494F"/>
<path d="M10.2843 17.3347C9.98213 17.64 9.66392 17.9325 9.3457 18.225H10.1782C10.3486 18.0643 10.5189 17.9036 10.6828 17.7332C10.8821 17.5275 10.4868 17.1289 10.2843 17.3347Z" fill="#CE494F"/>
<path d="M8.72014 14.9239C8.78442 14.8628 8.53049 14.9078 8.53371 14.9078C8.45335 14.9142 8.37299 14.9142 8.29263 14.9174C8.11585 14.9239 7.93906 14.9335 7.76228 14.9432C7.40549 14.9657 7.05192 15.0074 6.69835 15.0428C6.26442 15.0846 5.83049 15.1392 5.39335 15.1939C5.49299 14.7856 5.59906 14.3806 5.68585 13.9692C5.75978 13.6221 5.80478 13.291 5.91406 12.9471C6.01692 12.6256 6.13263 12.3074 6.24835 11.9892C6.24835 11.9828 6.24835 11.9796 6.24835 11.9731L5.48013 12.7414C5.46728 12.7767 5.45442 12.8153 5.44478 12.8506C5.33871 13.1881 5.19728 13.5128 5.08799 13.8471C4.93692 14.3131 4.82763 14.7953 4.71835 15.271C4.66692 15.2774 4.61549 15.2839 4.56406 15.2871C3.92121 15.3546 3.24942 15.4703 2.60656 15.6117L1.97656 16.2417C2.29156 16.1678 2.60335 16.1132 2.91835 16.0489C3.26228 15.9782 3.60942 15.9428 3.95335 15.8914C4.16871 15.8592 4.38085 15.8207 4.59621 15.7885C4.44835 16.3992 4.33906 17.0131 4.26514 17.6271C4.23942 17.8264 4.23299 18.0257 4.22978 18.2217H4.87263C4.87906 18.0546 4.89192 17.8906 4.90478 17.7235C4.95621 17.1031 5.09442 16.4892 5.22942 15.8721C5.24228 15.8174 5.25514 15.7628 5.26478 15.7082C5.85942 15.6471 6.45406 15.5667 7.04871 15.5249C7.40228 15.4992 7.75906 15.4703 8.11264 15.4414C8.27335 15.4285 8.43406 15.4124 8.59478 15.4092C8.73942 15.406 8.88728 15.4253 9.01585 15.3289C9.35013 15.0749 9.02228 14.6346 8.71371 14.9174" fill="#CE494F"/>
<path d="M18.0065 15.0495C17.9776 14.8727 17.9198 14.7023 17.9133 14.5223C17.9069 14.3391 17.9455 14.1623 17.984 13.9855C18.013 13.857 17.8426 13.7348 17.7462 13.8505C17.1162 14.577 16.5023 15.3066 15.853 16.0138C15.2069 16.7209 14.5898 17.4409 13.8601 18.0645C13.8023 18.1127 13.799 18.1737 13.8215 18.2252H14.159C15.4448 17.0809 16.4926 15.6956 17.6273 14.4066C17.6176 14.5352 17.6241 14.6638 17.6466 14.7988C17.7076 15.1523 17.7365 15.4352 17.6208 15.7823C17.6048 15.8305 17.5887 15.8755 17.5694 15.9238L18.0194 15.4737C18.0323 15.3323 18.0323 15.1909 18.0098 15.0463" fill="#CE494F"/>
<path d="M16.4423 16.8365C15.9923 17.2125 15.613 17.6465 15.2627 18.1158C15.237 18.1511 15.2113 18.1897 15.1855 18.225H15.2691L16.6545 16.8397C16.5998 16.7947 16.5034 16.7851 16.4423 16.8365Z" fill="#CE494F"/>
<path d="M12.0124 12.1372C11.7778 12.4169 11.7103 12.8379 11.691 13.0629C11.6878 13.1112 11.6846 13.1626 11.6813 13.2108C11.6717 13.3587 11.6621 13.4969 11.6235 13.6447C11.5881 13.7733 11.5431 13.9019 11.4949 14.0304C11.4724 14.0883 11.4531 14.1462 11.4338 14.204C11.1831 14.9272 11.0256 15.6697 10.9613 16.4187C10.9581 16.4669 10.9742 16.5183 11.0063 16.5537C11.0063 16.5537 11.0096 16.5601 11.0128 16.5601C11.0385 16.5858 11.0706 16.5987 11.1028 16.6019C11.7521 16.634 12.4013 16.4283 13.0056 16.2033C13.0763 16.1776 13.1503 16.1487 13.2242 16.1229C13.4846 16.0233 13.7546 15.9237 14.0213 15.8401C14.1628 15.7983 14.3074 15.7597 14.4456 15.7212C14.6867 15.6569 14.9342 15.5926 15.1753 15.4962L15.2138 15.4801C15.3231 15.4383 15.4613 15.3869 15.5353 15.2744C15.606 15.1715 15.6188 15.0333 15.6349 14.9144C15.6381 14.879 15.6413 14.8437 15.6478 14.8147C15.6542 14.7697 15.6606 14.728 15.6703 14.683L15.6831 14.6058C15.7185 14.4837 15.7474 14.3712 15.7699 14.2715C15.7892 14.1879 15.7988 14.1044 15.8053 14.0337C15.8535 13.8762 15.9146 13.6672 15.9467 13.4551L15.9692 13.3137C15.9853 13.2815 16.0013 13.2494 16.0174 13.2172C16.1106 13.034 16.1974 12.8637 16.2296 12.6483C16.2649 12.4137 16.281 12.1758 16.2971 11.9444C16.3035 11.8447 16.3099 11.7419 16.3196 11.6422C16.326 11.5779 16.2971 11.5265 16.2424 11.504C16.0624 11.3144 15.7699 11.3562 15.5096 11.3947C15.4678 11.4012 15.426 11.4076 15.3842 11.414C14.9921 11.4654 14.5935 11.5233 14.1949 11.5908C13.7867 11.6583 13.3721 11.7354 12.9638 11.8222C12.9092 11.8351 12.8417 11.8415 12.7742 11.8544C12.5106 11.8929 12.1828 11.9412 12.0092 12.1437M12.4142 12.2787C12.5267 12.2304 12.6649 12.2079 12.7967 12.1887C12.8546 12.179 12.9124 12.1726 12.9638 12.1597C13.2949 12.0922 13.6324 12.028 13.9667 11.9701C14.2978 11.9122 14.6353 11.8608 14.9696 11.8126C15.1367 11.7901 15.3038 11.7676 15.471 11.7451C15.4999 11.7419 15.5321 11.7355 15.5706 11.729C15.696 11.7065 15.9017 11.6712 15.966 11.7387C15.966 11.7387 15.9724 11.7451 15.9724 11.7483C15.9788 11.7579 15.9853 11.7644 15.9949 11.774C15.9885 11.8254 15.9853 11.8769 15.9821 11.9283L15.9756 11.9476C15.9628 11.9862 15.9499 12.0279 15.9403 12.0665C15.921 12.1437 15.9113 12.224 15.8985 12.3012C15.8374 12.5358 15.7828 12.7801 15.7346 13.0276C15.7217 13.0597 15.7121 13.0887 15.6992 13.1208L15.6896 13.1465C15.651 13.2204 15.6092 13.3104 15.5771 13.4037C15.516 13.5772 15.5128 13.7508 15.5063 13.9179L15.4999 13.9565C15.4935 13.9887 15.4903 14.024 15.4838 14.0562L15.4388 14.1879C15.3778 14.3679 15.3424 14.5447 15.3071 14.7183C15.2813 14.8404 15.2556 14.9658 15.2235 15.0912C15.2171 15.1137 15.2171 15.133 15.2203 15.149C15.1367 15.2037 15.0178 15.2262 14.9117 15.2455C14.8796 15.2519 14.8506 15.2583 14.8217 15.2647C14.1981 15.403 13.6196 15.5797 12.9992 15.8112C12.4431 16.0201 11.8999 16.2065 11.3696 16.2194C11.4306 15.6344 11.5463 15.0654 11.7103 14.5287C11.7456 14.4162 11.7842 14.3037 11.8228 14.1944C11.8871 14.0144 11.9546 13.8247 11.9963 13.6383C12.0317 13.4872 12.0381 13.3394 12.0478 13.198C12.0574 13.0372 12.0638 12.8862 12.1088 12.7287C12.1699 12.5069 12.2406 12.3558 12.4142 12.2819" fill="#CE494F"/>
<path d="M4.09303 16.5569C4.09945 16.2676 3.79731 16.2869 3.57874 16.3094C3.27981 16.3415 2.8491 16.3769 2.61446 16.6083C2.6016 16.6212 2.59517 16.634 2.59196 16.6501C2.58553 16.6597 2.58231 16.6726 2.57588 16.6855C2.53088 16.8397 2.54695 16.9908 2.54374 17.1451C2.53731 17.3508 2.50838 17.5597 2.50195 17.7654C2.50195 17.8844 2.60481 17.9712 2.72374 17.9326C2.93588 17.8651 3.14802 17.7944 3.36338 17.7269C3.49517 17.6851 3.67838 17.653 3.78124 17.5405C3.89053 17.4183 3.9291 17.1869 3.97088 17.0422C4.01588 16.8912 4.08981 16.7112 4.09303 16.5569ZM3.44053 17.3444C3.28303 17.4279 3.07731 17.473 2.88767 17.518C2.90053 17.2512 2.91338 16.9812 2.91017 16.7208C3.03553 16.7015 3.1641 16.6629 3.28624 16.6437C3.37945 16.6308 3.46945 16.6147 3.55945 16.6083C3.62053 16.6019 3.6816 16.5987 3.74267 16.5955C3.79731 16.5955 3.80053 16.6308 3.7491 16.6983C3.72981 16.8687 3.60767 17.2576 3.44053 17.3476" fill="#CE494F"/>
<path d="M9.16325 17.6046C9.28218 17.4471 9.42682 17.3121 9.56182 17.1707C9.66468 17.0614 10.0857 16.7335 9.84789 16.5021C9.61003 16.2706 9.33361 16.7689 9.25968 16.8685C9.14396 17.0292 9.03146 17.1931 8.89968 17.341C8.76468 17.4921 8.59432 17.5949 8.45932 17.7492C8.31789 17.9131 8.17325 18.0706 8.02539 18.2281H8.72932C8.76146 18.1896 8.7936 18.1542 8.82575 18.1157C8.96075 17.9582 9.03789 17.7717 9.16325 17.6078" fill="#CE494F"/>
<path d="M7.80159 14.1654C7.72445 14.0915 7.75981 13.8118 7.74695 13.6993C7.73088 13.5386 7.70838 13.3682 7.66338 13.2172C7.57659 12.9311 7.40302 12.9825 7.13624 13.0564C7.02695 13.0886 6.82766 13.1111 6.67338 13.1786C6.64445 13.1625 6.60588 13.1625 6.57374 13.1818C6.55445 13.1946 6.53516 13.2075 6.51909 13.2204C6.50302 13.2332 6.49338 13.2557 6.50302 13.2718C6.50624 13.2782 6.50945 13.2879 6.51266 13.2975C6.49338 13.3264 6.47731 13.3586 6.47409 13.3939C6.46766 13.4389 6.47409 13.4775 6.48695 13.5129C6.45481 13.6318 6.40981 13.7604 6.39052 13.8214C6.33267 14.0143 6.26517 14.2039 6.18159 14.3904C6.13659 14.49 6.22981 14.5897 6.32302 14.5832C6.76659 14.5479 7.21016 14.5125 7.65695 14.4739C7.80481 14.4611 7.90766 14.2682 7.79838 14.1654M6.68624 14.2264C6.78267 14.085 6.84695 13.9082 6.87588 13.7475C6.88874 13.6672 6.89516 13.5836 6.87909 13.5064C6.87909 13.5032 6.87909 13.4936 6.87588 13.4807C6.95624 13.4582 7.03981 13.4454 7.11052 13.4261C7.15552 13.4132 7.25838 13.3779 7.32588 13.3586C7.39338 13.5418 7.40302 13.7829 7.41267 13.9693C7.41588 14.0304 7.41909 14.0914 7.42231 14.1493C7.17802 14.175 6.93052 14.2007 6.68624 14.2264Z" fill="#CE494F"/>
<path d="M9.56484 8.36988C9.7352 8.34095 9.91199 8.30881 10.0759 8.25417C10.0888 8.25095 10.1981 8.21881 10.2013 8.20274C10.2109 8.20274 10.2173 8.19952 10.2238 8.19309C10.2238 8.19309 10.227 8.19309 10.2302 8.18988C10.272 8.15773 10.2977 8.10309 10.2688 8.05487C10.1627 7.87809 9.8252 8.04844 9.67091 8.07416C9.3077 8.13844 8.94127 8.14809 8.58127 8.11916C8.47841 8.11273 8.42056 8.22202 8.43341 8.3088C8.43984 8.3538 8.43341 8.39559 8.43341 8.44059L8.69377 8.70095C8.71627 8.60773 8.73556 8.51774 8.73877 8.42452C9.0152 8.43095 9.29163 8.41488 9.56806 8.36988" fill="#CE494F"/>
<path d="M2.20223 1.50721C2.10259 1.53614 2.00295 1.56828 1.90652 1.59721C1.82937 1.62293 1.75223 1.65186 1.67188 1.67757L1.87437 1.88007C1.97402 1.84793 2.07687 1.81579 2.17652 1.78365C2.16687 1.90579 2.15723 2.02793 2.14438 2.15007L2.35009 2.35579C2.35009 2.35579 2.35652 2.32686 2.35973 2.31078C2.38545 2.1115 2.39188 1.91543 2.39509 1.71936C2.73259 1.61971 3.0733 1.5265 3.41723 1.44614C3.69045 1.37864 3.96687 1.31758 4.24652 1.26293C4.44902 1.22115 4.82509 1.23079 4.97938 1.06686C5.02116 1.02186 5.03723 0.954357 5.0083 0.906143C5.00509 0.899715 4.99866 0.890069 4.99545 0.883641C4.96652 0.832212 4.88616 0.803285 4.83152 0.845071C4.8058 0.864357 4.76402 0.893286 4.73509 0.896501C4.41366 0.947929 4.09545 1.01865 3.77723 1.08936C3.31759 1.19222 2.86437 1.31115 2.41116 1.44293C2.43366 1.17936 2.4883 0.922218 2.5558 0.658647C2.61366 0.436861 2.65223 0.221501 2.68116 0.00292969H2.49795C2.45937 0.221501 2.41116 0.440075 2.35009 0.658647C2.26973 0.947932 2.23116 1.22436 2.20545 1.50401" fill="#CE494F"/>
<path d="M11.4796 8.26681C11.5246 8.03859 11.6467 7.74288 11.5663 7.50824C11.5503 7.46324 11.4988 7.45039 11.4667 7.47931C11.2963 7.61431 11.2642 7.89717 11.2128 8.09967C11.1517 8.34717 11.1099 8.60431 11.0713 8.86145C11.0103 9.28574 10.9717 9.71967 10.9621 10.1568C10.811 10.1857 10.6567 10.2147 10.5056 10.2532C9.9367 10.3979 9.37741 10.5747 8.82777 10.7643C8.55455 10.8607 8.28134 10.9572 8.01134 11.0632C7.78313 11.1532 7.48741 11.2368 7.34277 11.4393C7.29777 11.5004 7.36527 11.5743 7.42634 11.584C7.67706 11.6225 7.96313 11.465 8.19134 11.3815C8.47741 11.2754 8.7667 11.1693 9.05598 11.0729C9.60563 10.8897 10.1585 10.7032 10.7306 10.5715C10.8078 10.5554 10.8817 10.5393 10.9588 10.5232C10.9685 10.7868 11.0071 11.0761 10.9331 11.3236C10.8528 11.5936 10.7371 11.8507 10.6246 12.1047C10.5153 12.3554 10.3674 12.5868 10.2613 12.8407C10.2003 12.9886 10.1553 13.1429 10.0942 13.2907C10.0685 13.3486 10.0428 13.4064 10.0171 13.4643C10.0042 13.49 9.92063 13.6411 9.95277 13.6218C9.74384 13.7247 9.90134 14.0268 10.1135 14.0075C10.3513 13.9818 10.4156 13.6186 10.5088 13.4386C10.6438 13.1654 10.7853 12.9018 10.8913 12.6093C10.9878 12.3393 11.1003 12.079 11.1774 11.7993C11.2546 11.5229 11.2674 11.2272 11.2867 10.9411C11.2996 10.7804 11.3028 10.6229 11.3028 10.4622C11.6788 10.4011 12.0613 10.3625 12.4503 10.3336C13.0096 10.2918 13.6653 10.2404 14.1763 10.0186C14.366 9.93503 14.2085 9.6811 14.0317 9.70039C13.7231 9.73253 13.4242 9.82896 13.1221 9.88039C12.8199 9.93181 12.5146 9.96717 12.2124 9.9961C11.9038 10.0282 11.6017 10.0572 11.306 10.1022C11.306 9.77432 11.306 9.44645 11.3446 9.12181C11.3767 8.83252 11.4249 8.54967 11.4796 8.26681Z" fill="#CE494F"/>
<path d="M6.24849 16.6598C6.42206 16.6341 6.59563 16.6116 6.77242 16.5891C6.95242 16.5634 7.28028 16.573 7.41528 16.4155C7.4217 16.4091 7.42492 16.3995 7.41849 16.3898C7.32849 16.2195 7.01671 16.2291 6.83671 16.2194C6.53135 16.2066 6.21313 16.2419 5.90456 16.2966C5.7342 16.3255 5.59599 16.5377 5.7342 16.6662C6.04599 16.9555 5.82421 17.383 5.70206 17.7623C5.61849 18.0194 6.00742 18.0998 6.09099 17.8427C6.22278 17.4248 6.37385 17.0166 6.24849 16.6598Z" fill="#CE494F"/>
<path d="M11.1632 18.0674C11.1054 18.1188 11.0507 18.1735 10.9961 18.2249H11.5136C11.4718 18.0899 11.2822 17.9581 11.1632 18.0674Z" fill="#CE494F"/>
<path d="M9.85536 12.3556C9.88108 11.9956 9.59179 11.642 9.22536 11.7417C9.13215 11.7256 9.02929 11.7481 8.94572 11.7803C8.785 11.8413 8.66286 11.9763 8.60822 12.1435C8.56 12.2849 8.55358 12.4778 8.63072 12.6224C8.72393 12.7896 8.95215 12.8763 9.12572 12.9085C9.49215 12.9792 9.82643 12.7317 9.85536 12.3556ZM9.2575 12.5678C9.18036 12.5645 8.95858 12.5196 8.91036 12.4424C8.85893 12.3588 8.91679 12.2045 8.96822 12.1435C9.0325 12.0695 9.11286 12.0535 9.19965 12.0406C9.26715 12.0663 9.37965 12.0695 9.43108 12.1017C9.49858 12.1467 9.53393 12.3042 9.5275 12.3685C9.51465 12.5131 9.38608 12.571 9.2575 12.5645" fill="#CE494F"/>
<path d="M16.8358 7.09705C16.8326 7.07776 16.8229 7.06169 16.8101 7.04562C16.7618 6.98133 16.6783 6.96848 16.6043 7.00705C16.569 7.02633 16.5368 7.05204 16.5111 7.08097C16.4533 7.14526 16.4468 7.21598 16.4758 7.28991C16.4854 7.31562 16.5015 7.33812 16.5208 7.3574C16.5401 7.4249 16.5883 7.48276 16.659 7.51168C16.8293 7.57597 17.0158 7.41204 16.9676 7.23204C16.9515 7.16776 16.8968 7.11633 16.8358 7.10026" fill="#CE494F"/>
<path d="M9.00608 5.64736C8.83251 6.02021 9.42072 6.34164 9.70037 6.422C9.85787 6.467 10.0636 6.41236 10.0829 6.2195C10.0989 6.05236 9.99608 5.86593 9.88679 5.73093C9.89644 5.70843 9.89965 5.68271 9.88679 5.657C9.74215 5.37093 9.16037 5.3195 9.00608 5.64736ZM9.48501 5.70843C9.59108 5.72771 9.57501 5.78557 9.60715 5.83057C9.64572 5.88522 9.62644 5.972 9.6618 6.02986C9.66501 6.03629 9.67465 6.05557 9.68751 6.07485C9.53965 6.02342 9.35322 5.90772 9.32108 5.84022C9.26001 5.70843 9.35965 5.68915 9.48501 5.71165" fill="#CE494F"/>
<path d="M20.6349 6.81447C20.696 7.44768 20.7281 8.06804 20.7378 8.70447C20.7442 9.00661 20.7185 9.2991 20.6992 9.60125C20.6928 9.71375 20.6896 9.83911 20.7185 9.9484C20.2492 10.3116 19.8281 10.7262 19.3813 11.1184C19.3621 11.1345 19.3492 11.1505 19.3428 11.1698C19.2271 11.1409 19.0985 11.1505 18.9892 11.1538C18.7771 11.1602 18.5649 11.1602 18.3528 11.1538C17.9638 11.1473 17.5846 11.2084 17.2053 11.2823C16.9706 11.3273 17.0606 11.6905 17.2728 11.697C17.2953 11.697 17.321 11.697 17.3435 11.697C17.3949 11.697 17.4335 11.6809 17.4656 11.6552C17.7646 11.5909 18.0667 11.5491 18.3688 11.517C18.5263 11.5009 18.6871 11.4912 18.8446 11.5009C18.9056 11.5073 19.2528 11.5266 19.2656 11.5363C19.2881 11.5652 19.2592 11.7291 19.256 11.7773C19.256 11.8705 19.256 11.967 19.2496 12.0602C19.2399 12.2659 19.2142 12.4684 19.1981 12.6741C19.1724 12.9988 19.1467 13.3073 19.2238 13.6287C19.2753 13.8377 19.5485 13.738 19.5131 13.5388C19.4456 13.1241 19.5356 12.658 19.5613 12.2402C19.5774 12.0152 19.6963 11.6423 19.6063 11.3916C19.6192 11.3852 19.6288 11.3755 19.6417 11.3659C19.8763 11.1409 20.1238 10.9287 20.3617 10.707C20.5192 10.5591 20.7635 10.3855 20.8953 10.1895C20.8953 10.1895 20.9017 10.1927 20.9049 10.1959C21.1138 10.318 21.4192 10.1959 21.6378 10.1734C21.9078 10.1445 22.1713 10.1059 22.4381 10.0577C22.7274 10.0063 23.0199 9.94839 23.306 9.88411C23.4442 9.85196 23.5792 9.81661 23.7142 9.77804C23.7142 9.77804 23.7142 9.77804 23.7174 9.77804L24.0453 9.45018C24.0228 9.43089 23.9971 9.42125 23.9649 9.42125C23.4956 9.44053 23.0103 9.5884 22.5442 9.65911C22.3063 9.69447 22.0685 9.72018 21.8338 9.75554C21.7085 9.77482 21.5831 9.79411 21.4546 9.80375C21.3806 9.81018 21.1942 9.85839 21.1299 9.82625C21.0431 9.78125 21.101 9.21554 21.1042 9.08697C21.1138 8.83304 21.1267 8.5791 21.1235 8.32518C21.1171 7.82053 21.0881 7.29661 21.0303 6.79518C20.9981 6.53161 20.6156 6.53804 20.6413 6.80483" fill="#CE494F"/>
<path d="M11.2441 5.67013C11.2441 5.75048 11.3084 5.80834 11.3824 5.83084C11.4402 5.87584 11.5238 5.86298 11.5849 5.80834C11.6556 5.76977 11.707 5.69906 11.7231 5.62191C11.7391 5.54798 11.7295 5.47084 11.6781 5.41941C11.6234 5.36477 11.5206 5.35191 11.4499 5.39691C11.392 5.43548 11.3534 5.49334 11.3374 5.55762C11.3374 5.55762 11.3374 5.56405 11.3374 5.56727C11.3245 5.57048 11.3116 5.5769 11.302 5.58333C11.2731 5.60262 11.2506 5.63477 11.2506 5.67013" fill="#CE494F"/>
<path d="M10.4805 4.62525C10.458 4.56096 10.4227 4.50632 10.368 4.47096C10.3584 4.43882 10.3423 4.40668 10.323 4.38418C10.217 4.27168 10.037 4.35525 9.9791 4.48704C9.85696 4.76668 10.2298 4.98846 10.4387 4.77632C10.4741 4.74096 10.4998 4.67667 10.4837 4.62846" fill="#CE494F"/>
<path d="M8.05644 7.71096C8.53858 7.55346 9.04323 7.45703 9.54787 7.41524C9.85322 7.38953 10.1393 7.3831 10.4479 7.39596C10.6922 7.4056 10.9622 7.36381 11.0972 7.1356C11.2032 6.95239 10.9461 6.74988 10.7982 6.91381C10.6407 7.08738 10.2004 7.03274 9.9818 7.03274C9.70858 7.03274 9.44501 7.04882 9.17501 7.08739C8.81822 7.1356 8.47108 7.21596 8.13037 7.31882C8.19144 6.98775 8.25251 6.65989 8.3393 6.33525C8.49037 5.75989 8.74108 5.20381 8.86644 4.63167C8.89215 4.51595 8.73787 4.44846 8.67037 4.55775C8.35537 5.07525 8.19465 5.73095 8.03394 6.30953C7.92787 6.6856 7.84751 7.06489 7.76394 7.44739C7.71894 7.46346 7.67072 7.48274 7.62572 7.50202C7.59358 7.51488 7.56144 7.52774 7.5293 7.54381L7.99858 8.0131C7.99858 8.0131 8.0018 7.99703 8.00501 7.9906C8.0243 7.9006 8.04037 7.8106 8.05644 7.7206" fill="#CE494F"/>
<path d="M15.1787 6.42533C14.9087 6.16176 14.6162 5.92068 14.3494 5.65711C14.0794 5.39032 13.758 5.1364 13.5459 4.81818C13.3659 4.5514 13.3016 4.21068 13.0541 3.98889C12.8066 3.76389 12.4626 3.61604 12.1798 3.43925C11.598 3.07604 10.8073 2.80925 10.4987 2.16318C10.4184 1.99604 10.1869 2.1246 10.2062 2.28853C10.2834 2.90889 11.1384 3.24318 11.598 3.52283C11.9226 3.7189 12.273 3.88925 12.5848 4.09818C12.9159 4.32318 13.0091 4.63818 13.2212 4.9564C13.6198 5.55104 14.1984 6.00425 14.703 6.50247C14.9569 6.75318 15.2398 6.97818 15.4776 7.24818C15.7251 7.52783 15.9501 7.83318 16.1784 8.12889C16.2619 8.23818 16.4741 8.11283 16.4259 7.98104C16.1912 7.34461 15.6544 6.88818 15.1819 6.42533" fill="#CE494F"/>
<path d="M3.68628 14.5898C3.667 14.5963 3.64128 14.5995 3.622 14.6059L3.18164 15.0463C3.31664 15.0045 3.45486 14.9466 3.58664 14.9081C3.802 14.847 3.98843 14.7891 4.207 14.8148C4.29057 14.8245 4.37093 14.7666 4.38057 14.6766C4.39021 14.5545 4.43843 14.4356 4.44486 14.3102C4.45128 14.1881 4.46735 14.1077 4.51235 13.9856C4.55735 13.8698 4.59271 13.7445 4.60878 13.6191L4.27128 13.9566C4.25521 13.9952 4.23914 14.0338 4.22307 14.0723C4.19414 14.1527 4.19093 14.2106 4.18128 14.2909C4.17486 14.3777 4.15557 14.4581 4.13628 14.5416C3.98843 14.5352 3.847 14.5513 3.68307 14.5931" fill="#CE494F"/>
<path d="M8.8031 3.72851C8.83203 3.85065 8.96059 3.9503 9.09238 3.90851C9.24024 3.8603 9.28845 3.67709 9.19202 3.57101C9.18238 3.56137 9.17274 3.55494 9.16309 3.54851C9.15024 3.45851 9.06345 3.3878 8.96702 3.41673C8.83524 3.4553 8.77095 3.60637 8.8031 3.72851Z" fill="#CE494F"/>
<path d="M21.4266 10.9254C21.2466 10.9062 21.0666 10.8933 20.8866 10.8869C20.7516 10.8869 20.5974 10.8644 20.472 10.9254C20.2438 11.0379 20.2759 11.3079 20.3306 11.5265C20.4238 11.8801 20.517 12.2304 20.5716 12.5969C20.5845 12.6933 20.5941 12.7897 20.607 12.8861L20.8834 12.6097C20.8513 12.3879 20.8159 12.1662 20.7645 11.9508C20.7292 11.7901 20.6874 11.6358 20.6424 11.4783C20.6199 11.3979 20.5749 11.324 20.6359 11.2597C20.6906 11.2019 20.787 11.2244 20.8609 11.2244C21.3109 11.2244 21.7545 11.3015 22.1981 11.2951L22.5452 10.9479C22.5066 10.9544 22.4713 10.964 22.4327 10.9672C22.0984 11.009 21.7577 10.964 21.4234 10.9286" fill="#CE494F"/>
<path d="M13.948 8.63336C13.9737 8.67836 14.0155 8.72014 14.0605 8.74586C14.1248 8.78122 14.1891 8.78121 14.263 8.76835C14.3112 8.75871 14.3691 8.71049 14.3916 8.66871C14.4141 8.62371 14.4334 8.56264 14.4173 8.51443C14.3948 8.45336 14.3691 8.3955 14.3241 8.34728C14.3113 8.32478 14.2984 8.3055 14.2759 8.28943C14.218 8.23478 14.1088 8.20907 14.0348 8.26372C13.9963 8.28943 13.9673 8.31835 13.9416 8.35692C13.9191 8.39228 13.9095 8.44371 13.9062 8.48229C13.9062 8.53693 13.9191 8.59156 13.9448 8.63656" fill="#CE494F"/>
<path d="M13.1827 7.75927C13.1859 7.79784 13.1956 7.8332 13.2149 7.86855C13.2534 7.94248 13.3499 7.97141 13.4302 7.93605C13.4817 7.91355 13.517 7.87176 13.5331 7.82355C13.6006 7.76569 13.5974 7.65641 13.5459 7.59534C13.5363 7.53427 13.4977 7.47642 13.4367 7.46034C13.3917 7.4282 13.3306 7.42498 13.2792 7.45391C13.1699 7.51177 13.1249 7.65641 13.1795 7.75927M13.4302 7.68534C13.4302 7.68534 13.4302 7.68856 13.427 7.69177C13.427 7.69177 13.4302 7.68855 13.4334 7.68534" fill="#CE494F"/>
<path d="M14.703 9.37953C14.7094 9.43096 14.7576 9.48881 14.8026 9.51131C14.8541 9.53703 14.9055 9.54346 14.9666 9.52739C14.9923 9.52096 15.018 9.51132 15.0437 9.49524C15.0983 9.47274 15.1466 9.43738 15.1787 9.38274C15.2076 9.33453 15.2173 9.27989 15.2205 9.22846C15.2237 9.14811 15.1787 9.07738 15.1144 9.03881C15.1144 9.03881 15.1112 9.0356 15.108 9.03239C15.0308 8.95203 14.8894 8.95846 14.8058 9.04203C14.7608 9.08703 14.7287 9.14167 14.7094 9.19953C14.6901 9.2606 14.6933 9.31846 14.703 9.37953ZM15.0116 9.5081C15.0116 9.5081 15.0051 9.5081 15.0051 9.51131C14.9987 9.51131 14.9955 9.51131 14.9891 9.51131C14.9955 9.51131 15.0051 9.5081 15.0116 9.50489" fill="#CE494F"/>
<path d="M18.7016 12.8893C18.7851 12.6611 18.8655 12.4329 18.9169 12.1951C18.9523 12.0311 18.8044 11.8993 18.6598 11.9379C18.4541 11.9893 18.2741 12.0697 18.0812 12.1597C17.9751 12.2079 18.0169 12.3976 18.123 12.4168C18.2355 12.4361 18.3512 12.4297 18.4669 12.4168C18.4508 12.5518 18.438 12.6868 18.4251 12.8218C18.4251 12.8508 18.4316 12.8765 18.4444 12.9022C18.4991 12.9954 18.6598 13.0115 18.7016 12.8958" fill="#CE494F"/>
<path d="M15.2888 7.89754C15.0413 7.63397 14.8066 7.36075 14.5591 7.09718C14.0673 6.57004 13.5948 6.03004 13.1127 5.49646C12.6402 4.96932 12.1677 4.47754 11.5891 4.0629C11.0298 3.66111 10.3323 3.36861 9.90162 2.81897C9.75055 2.62611 9.47412 2.91218 9.61876 3.10182C10.027 3.64182 10.6763 3.94397 11.2227 4.32647C11.8173 4.74111 12.338 5.2554 12.8105 5.80183C13.283 6.34504 13.762 6.88182 14.2473 7.41539C14.4788 7.66932 14.7263 7.91039 14.9641 8.16432C15.1795 8.39575 15.4173 8.71396 15.7259 8.82003C15.8127 8.84896 15.9091 8.74611 15.8834 8.66254C15.7934 8.36361 15.4977 8.12253 15.292 7.90396" fill="#CE494F"/>
<path d="M12.5825 6.62145C12.5825 6.62145 12.5793 6.59573 12.5728 6.57966C12.5986 6.50252 12.5953 6.41252 12.5246 6.35466C12.4668 6.30966 12.3961 6.30002 12.3382 6.32894C12.3221 6.31609 12.3028 6.30966 12.2836 6.31608C12.2771 6.31608 12.2739 6.31609 12.2739 6.3193C12.2675 6.3193 12.2643 6.3193 12.2578 6.3193C12.2386 6.32573 12.2193 6.33538 12.2032 6.35145C12.1711 6.38359 12.1614 6.42859 12.1582 6.47359C12.1582 6.54431 12.1839 6.60859 12.2321 6.65681C12.245 6.70502 12.2643 6.75001 12.2964 6.78858C12.3414 6.84323 12.4378 6.84644 12.4957 6.81109C12.5664 6.7693 12.5889 6.69537 12.5793 6.62145" fill="#CE494F"/>
<path d="M9.05908 9.84193C8.96586 9.9255 9.05265 10.0701 9.16194 10.083C9.38372 10.1119 9.61836 10.0476 9.83051 10.0123C10.0812 9.9705 10.3319 9.92551 10.5826 9.88051C10.6855 9.86122 10.7305 9.75515 10.708 9.65872C10.6566 9.41765 10.5762 9.11229 10.6405 8.87444C10.6919 8.70087 10.7337 8.57872 10.5826 8.42122C10.4669 8.30229 10.2291 8.41158 10.2998 8.57551C10.3416 8.67194 10.2741 8.75229 10.258 8.84229C10.2419 8.91943 10.2484 9.00301 10.2516 9.08336C10.2612 9.23765 10.2837 9.38872 10.3094 9.543C10.0973 9.57836 9.88515 9.61693 9.67622 9.65551C9.47051 9.69408 9.21336 9.70372 9.05586 9.84193" fill="#CE494F"/>
<path d="M14.7163 5.64078C14.7291 5.72114 14.8448 5.77578 14.9188 5.72114C14.9413 5.70507 14.9638 5.68578 14.9831 5.66328C14.9927 5.66328 15.0023 5.65685 15.0088 5.65363C15.0763 5.62471 15.1341 5.53792 15.1084 5.46399C15.1052 5.44792 15.0988 5.43185 15.0923 5.41578C15.0891 5.40292 15.0859 5.39007 15.0795 5.38043C15.0666 5.34186 15.0377 5.3065 15.0023 5.28721C14.9606 5.25185 14.9059 5.23578 14.8416 5.25185C14.7227 5.28399 14.6584 5.42543 14.7131 5.52828C14.7066 5.56364 14.7066 5.60221 14.7131 5.63757" fill="#CE494F"/>
<path d="M11.7346 2.84454C11.7796 2.87347 11.9339 2.84454 11.966 2.83168C12.0206 2.81561 12.0496 2.78669 12.0817 2.73848C12.101 2.70955 12.1074 2.65812 12.101 2.62598C12.0978 2.6099 12.101 2.52311 12.0946 2.49097C12.0817 2.43633 12.0528 2.4074 12.0078 2.37847C11.9789 2.35918 11.9306 2.35598 11.8953 2.36562C11.8728 2.37205 11.7249 2.34633 11.6349 2.49097C11.6028 2.54561 11.6028 2.75454 11.7346 2.84133" fill="#CE494F"/>
<path d="M10.9756 2.12454C11.0335 2.21133 11.146 2.20489 11.207 2.11811C11.2167 2.10525 11.2263 2.0924 11.2327 2.07633C11.2488 2.06026 11.2585 2.03775 11.2649 2.01204C11.2777 1.96383 11.2649 1.92204 11.236 1.8899C11.2231 1.86097 11.2038 1.84169 11.1781 1.82562C11.1717 1.80312 11.1588 1.78061 11.1395 1.76133C11.0785 1.69704 10.9531 1.7324 10.9306 1.8224C10.9049 1.92526 10.9177 2.03132 10.9756 2.11811" fill="#CE494F"/>
<path d="M4.33061 2.92176C4.35954 2.7514 4.40133 2.58105 4.44633 2.41391C4.48169 2.27891 4.56526 2.13747 4.53311 1.99926C4.5299 1.97676 4.5074 1.97355 4.48811 1.97998C4.2824 2.06998 4.22776 2.45891 4.17954 2.6582C4.11526 2.91855 4.08633 3.14676 4.12168 3.41676C4.14418 3.59998 4.17311 3.79284 3.95776 3.85391C3.92561 3.86355 3.89347 3.86676 3.86133 3.86998L4.06383 4.07248C4.1924 4.02748 4.29526 3.94712 4.34026 3.78962C4.42061 3.51319 4.27918 3.20462 4.3274 2.91855" fill="#CE494F"/>
<path d="M0.140625 0.147576L0.355982 0.362928C0.404196 0.353285 0.449197 0.340432 0.497411 0.337218C0.552054 0.334004 0.606696 0.301858 0.619553 0.244001C0.638839 0.163644 0.664553 0.0832868 0.690268 0.00292969H0.423481C0.417053 0.0350725 0.407412 0.0640039 0.397769 0.0961467C0.310983 0.10579 0.224196 0.125076 0.140625 0.147576Z" fill="#CE494F"/>
<path d="M6.26384 4.86316C5.91991 4.96602 5.57598 5.07851 5.23848 5.19101C5.22563 5.19423 5.21598 5.20066 5.20312 5.20709L5.4442 5.44816C5.74313 5.3453 6.04205 5.24887 6.34741 5.15244C6.62705 5.06566 7.0192 5.00459 7.23777 4.80209C7.27634 4.76673 7.25705 4.68638 7.20241 4.67673C6.90348 4.61888 6.54348 4.77316 6.26705 4.85673" fill="#CE494F"/>
<path d="M11.0477 1.19875C11.2887 1.40768 11.652 1.50732 11.9348 1.66161C12.2595 1.83839 12.5327 2.05374 12.7673 2.33982C13.2173 2.88624 13.542 3.51946 14.053 4.01767C15.0527 4.9916 16.2195 5.76625 17.1323 6.83017C17.1998 6.90732 17.3284 6.80125 17.2802 6.71446C16.6052 5.44482 15.252 4.73768 14.3166 3.69304C14.0659 3.41339 13.8248 3.11768 13.6127 2.80911C13.4198 2.52625 13.2462 2.22731 13.0116 1.9766C12.7834 1.73231 12.5102 1.52661 12.2241 1.34982C12.0762 1.25982 11.9187 1.18268 11.7612 1.10875C11.5941 1.03161 11.4141 0.925533 11.2277 0.906247C11.0798 0.890176 10.9159 1.07661 11.0541 1.19875" fill="#CE494F"/>
<path d="M13.7245 4.54496C13.7374 4.56103 13.7567 4.57389 13.7792 4.58353C13.8306 4.60282 13.8885 4.58996 13.9302 4.5546C13.956 4.5546 13.9817 4.54817 14.0074 4.5321C14.0427 4.5096 14.062 4.47745 14.0685 4.43888C14.0685 4.41638 14.0685 4.3971 14.0652 4.37781C14.0588 4.3521 14.0556 4.35211 14.0524 4.33603C14.046 4.31675 14.0363 4.29746 14.0235 4.28139C14.0106 4.2396 13.9817 4.20424 13.9399 4.18174C13.9206 4.1721 13.8981 4.16568 13.8756 4.16568C13.8274 4.14318 13.7663 4.13996 13.7245 4.18817C13.6602 4.2621 13.6442 4.3521 13.6699 4.4421C13.6795 4.48389 13.702 4.51924 13.731 4.54174" fill="#CE494F"/>
<path d="M12.7923 3.52266C12.8726 3.57087 12.9916 3.56122 13.043 3.46801C13.0848 3.39408 13.0719 3.30086 13.0173 3.243C12.9755 3.198 12.9048 3.16908 12.8373 3.18515C12.818 3.18515 12.8019 3.19158 12.7859 3.19801C12.728 3.22372 12.6991 3.27193 12.6926 3.333C12.683 3.41015 12.7312 3.4873 12.7923 3.52266Z" fill="#CE494F"/>
<path d="M4.90886 4.38112C4.95386 3.98576 5.00208 3.59362 5.07922 3.20148C5.13065 2.93791 5.18851 2.67433 5.25601 2.41397C5.28815 2.2854 5.32351 2.15362 5.35886 2.02505C5.36529 2.00255 5.49065 1.6779 5.50029 1.66183C5.526 1.62326 5.52279 1.61683 5.5035 1.57504C5.49386 1.55575 5.46815 1.54933 5.44886 1.55255C5.28172 1.58469 5.23993 1.88683 5.19172 2.02183C5.10493 2.27576 5.02779 2.53291 4.95708 2.79005C4.81565 3.32041 4.716 3.86683 4.64529 4.41648C4.57779 4.42933 4.5135 4.44219 4.44922 4.45505L4.84779 4.85362C4.84779 4.85362 4.84779 4.84718 4.84779 4.84076C4.85743 4.77004 4.86386 4.69933 4.87029 4.62861C5.13708 4.59004 5.38779 4.53862 5.6385 4.4454C5.88922 4.35219 6.13672 4.24933 6.39708 4.17861C6.65743 4.11111 6.921 4.06612 7.191 4.03076C7.44172 3.99862 7.74065 4.02112 7.97208 3.92469C8.0235 3.90219 8.00422 3.82183 7.95279 3.80897C7.71815 3.7479 7.43529 3.80254 7.19743 3.82504C6.94672 3.84754 6.696 3.87969 6.4485 3.93112C5.91493 4.04362 5.43279 4.2879 4.896 4.37147" fill="#CE494F"/>
<path d="M11.8827 9.11275C11.9405 9.36668 12.2394 9.4374 12.4644 9.44704C12.7087 9.45347 12.9241 9.30883 12.9755 9.07418C13.0237 8.86204 12.9048 8.5599 12.6798 8.4699C12.6702 8.46668 12.6637 8.46347 12.6541 8.46025C12.6509 8.45382 12.6444 8.4474 12.638 8.44097C12.4709 8.3124 12.2362 8.42168 12.1044 8.53097C11.9437 8.66597 11.8344 8.89097 11.8859 9.11275M12.3423 8.70775C12.3744 8.67882 12.413 8.66275 12.4516 8.64668C12.4773 8.69489 12.5223 8.7399 12.5577 8.78168C12.8212 9.11597 12.217 9.18026 12.1977 8.99704C12.188 8.89097 12.2684 8.76882 12.3423 8.70775Z" fill="#CE494F"/>
<path d="M14.0692 0.227934C14.1431 0.182934 14.1849 0.0897154 14.1817 0.00292969H13.6738C13.6803 0.0382868 13.6931 0.0768606 13.7092 0.105789C13.7735 0.224718 13.931 0.308291 14.066 0.227934" fill="#CE494F"/>
<path d="M7.85939 1.97971C7.96224 2.089 8.17117 2.43936 8.36082 2.37507C8.6276 2.28507 8.34474 1.92828 8.24832 1.819C8.11974 1.67436 7.98153 1.53615 7.84332 1.40115C7.95582 1.28543 8.04903 1.14079 8.14224 1.02829C8.34796 0.777573 8.5376 0.510782 8.75617 0.269711C8.83332 0.182925 8.95224 0.096144 9.08081 0.00292969H8.53117C8.48296 0.051144 8.43475 0.0993555 8.38975 0.150784C8.2001 0.382213 8.0201 0.620074 7.83689 0.857931C7.76296 0.954359 7.66653 1.054 7.5926 1.1665C7.48974 1.07007 7.38367 0.973644 7.28403 0.877216C6.96903 0.575073 6.61867 0.298647 6.28117 0.00614711H5.76367C6.12367 0.362933 6.52546 0.677931 6.89831 1.009C7.23903 1.31436 7.55081 1.64543 7.8626 1.98293" fill="#CE494F"/>
<path d="M7.43482 0.407933C7.46375 0.449719 7.50875 0.468999 7.55697 0.46257C7.59232 0.456142 7.62125 0.436858 7.64054 0.404715C7.76268 0.369358 7.89125 0.272927 7.94268 0.231141C8.02625 0.163641 8.10339 0.0865043 8.17411 0.00614711H7.77875C7.74661 0.03829 7.71125 0.067215 7.67589 0.0929293C7.67589 0.0929293 7.64054 0.118648 7.61482 0.137934C7.58911 0.0897197 7.55375 0.0447154 7.51197 0.00292969H6.96875C7.14875 0.0897154 7.29018 0.211861 7.43161 0.407933" fill="#CE494F"/>
<path d="M9.59316 0.803284C9.47423 0.960784 9.3553 1.11829 9.23637 1.27258C9.13994 1.39793 9.05316 1.46543 9.09816 1.62614C9.11101 1.66471 9.14315 1.69043 9.18494 1.69365C9.38423 1.7065 9.47744 1.50722 9.59316 1.369C9.75066 1.18257 9.91137 1.00258 10.0689 0.819361C10.2617 0.594361 10.5607 0.31793 10.6089 0.00292969H10.1846C10.1492 0.118644 10.0239 0.244001 9.95958 0.324358C9.83744 0.481858 9.7153 0.642576 9.59637 0.800076" fill="#CE494F"/>
<path d="M18.0306 6.26769C18.0467 5.94305 17.7896 5.68269 17.5903 5.45769C17.3428 5.17805 17.0728 4.92091 16.7899 4.67662C16.2339 4.19127 15.6456 3.74126 15.1089 3.23662C14.8453 2.99233 14.5978 2.73198 14.3728 2.45233C14.1414 2.15983 13.9581 1.83519 13.6656 1.59733C13.3699 1.35626 13.0421 1.15377 12.7239 0.941624C12.5664 0.838767 12.4153 0.729474 12.2514 0.633045C12.1003 0.54626 11.9589 0.436979 11.7789 0.427336C11.7081 0.424122 11.676 0.507694 11.6985 0.559123C11.7724 0.723052 11.9428 0.819478 12.081 0.928764C12.2256 1.04769 12.3864 1.14733 12.5374 1.25662C12.846 1.47197 13.1803 1.67126 13.4599 1.92198C13.7267 2.15983 13.9003 2.48126 14.1221 2.75769C14.3471 3.03734 14.5978 3.29769 14.8581 3.54198C15.3853 4.03698 15.9639 4.47733 16.5071 4.95305C16.7674 5.18126 17.0214 5.41269 17.256 5.6634C17.4714 5.89161 17.661 6.20983 17.9664 6.30947C17.9953 6.31912 18.0274 6.29019 18.0274 6.26126" fill="#CE494F"/>
<path d="M5.95894 3.3235C6.14536 3.49707 6.48608 3.59671 6.61786 3.31707C6.69179 3.15957 6.63072 2.95386 6.50858 2.81564C6.46679 2.70957 6.31572 2.63886 6.22251 2.58743C6.09072 2.51672 5.97501 2.53279 5.87215 2.63886C5.79179 2.72243 5.71465 2.83171 5.72108 2.95386C5.73072 3.0985 5.85608 3.22386 5.95894 3.32029M6.01679 2.81564C6.07144 2.761 6.10358 2.76422 6.15501 2.78672C6.15501 2.78993 6.15822 2.79636 6.16144 2.79958C6.23215 2.91529 6.38643 2.96672 6.41536 3.11136C6.46036 3.35565 6.19358 3.2335 6.10358 3.1435C6.00072 3.04385 5.89465 2.93779 6.02001 2.81564" fill="#CE494F"/>
</g>
</g>
<defs>
<clipPath id="clip0_1187_120224">
<rect width="24.4286" height="18" fill="white"/>
</clipPath>
<clipPath id="clip1_1187_120224">
<rect width="24.4286" height="18" fill="white"/>
</clipPath>
</defs>
</svg>
